<mxfile host="app.diagrams.net" modified="2023-03-22T11:19:20.648Z" agent="5.0 (Windows NT 10.0; Win64; x64) AppleWebKit/537.36 (KHTML, like Gecko) Chrome/111.0.0.0 Safari/537.36" etag="JynnDZ3z71UhftpnMubs" version="21.0.8" type="github">
  <diagram name="第 1 页" id="bPbcD3D1T_JN-nmvrSWy">
    <mxGraphModel dx="3247" dy="848" grid="1" gridSize="10" guides="1" tooltips="1" connect="1" arrows="1" fold="1" page="1" pageScale="1" pageWidth="827" pageHeight="1169" math="0" shadow="0">
      <root>
        <mxCell id="0" />
        <mxCell id="1" parent="0" />
        <mxCell id="J1vw9qnbSeDiCv4yjS9k-2" value="" style="shape=image;verticalLabelPosition=bottom;labelBackgroundColor=default;verticalAlign=top;aspect=fixed;imageAspect=0;image=data:image/png,iVBORw0KGgoAAAANSUhEUgAAB4AAAAPPCAYAAAAl49ZsAAAAOXRFWHRTb2Z0d2FyZQBNYXRwbG90bGliIHZlcnNpb24zLjYuMiwgaHR0cHM6Ly9tYXRwbG90bGliLm9yZy8o6BhiAAAACXBIWXMAAA9hAAAPYQGoP6dpAADbI0lEQVR4nOzdeZxddXk/8GcIyWSdhCyQDGQxCAQUWaQICNqACAF+0FTRX6tdQIsCFlqVlkRErUuoUdx+1lRAC0qjghWkKkWRhCKauCEiyCIBshAEQlaSTDIzvz8uDI4JE77PTO4wZ97v1+u+Xpmb87nPufeec55z7veecxva29vbAwAAAAAAAIA+b5fengEAAAAAAAAAeoYBYAAAAAAAAICKMAAMAAAAAAAAUBEGgAEAAAAAAAAqwgAwAAAAAAAAQEUYAAYAAAAAAACoCAPAAAAAAAAAABVhABgAAAAAAACgIgwAAwAAAAAAAFSEAWAAAAAAAACAijAADAAAAAAAAFARBoABAAAAAAAAKsIAMAAAAAAAAEBFGAAGAAAAAAAAqAgDwAAAAAAAAAAVYQAYAAAAAAAAoCIMAAMAAAAAAABUhAFgAAAAAAAAgIowAAwAAAAAAABQEQaAAQAAAAAAACrCADAAAAAAAABARRgABgAAAAAAAKgIA8AAAAAAAAAAFWEAGAAAAAAAAKAiDAADAAAAAAAAVIQBYAAAAAAAAICKMAAMAAAAAAAAUBEGgAEAAAAAAAAqwgAwAAAAAAAAQEUYAAYAAAAAAACoCAPAAAAAAAAAABVhABgAAAAAAACgIgwAAwAAAAAAAFSEAWAAAAAAAACAijAADAAAAAAAAFARBoABAAAAAAAAKsIAMAAAAAAAAEBFGAAGAAAAAAAAqAgDwAAAAAAAAAAVYQAYAAAAAAAAoCIMAAMAAAAAAABUhAFgAAAAAAAAgIowAAwAAAAAAABQEQaAAQAAAAAAACrCADAAAAAAAABARRgABgAAAAAAAKgIA8AAAAAAAAAAFWEAGAAAAAAAAKAiDAADAAAAAAAAVIQBYAAAAAAAAICKMAAMAAAAAAAAUBEGgAEAAAAAAAAqwgAwAAAAAAAAQEUYAAYAAAAAAACoCAPAAAAAAAAAABVhABgAAAAAAACgIgwAAwAAAAAAAFSEAWAAAAAAAACAijAADAAAAAAAAFARBoABAAAAAAAAKsIAMAAAAAAAAEBFGAAGAAAAAAAAqAgDwAAAAAAAAAAVYQAYAAAAAAAAoCIMAAMAAAAAAABUhAFgAAAAAAAAgIowAAwAAAAAAABQEQaAAQAAAAAAACrCADAAAAAAAABARRgABgAAAAAAAKgIA8AAAAAAAAAAFWEAGAAAAAAAAKAiDAADAAAAAAAAVIQBYAAAAAAAAICKMAAMAAAAAAAAUBEGgAEAAAAAAAAqwgAwAAAAAAAAQEUYAAYAAAAAAACoCAPAAAAAAAAAABVhABgAAAAAAACgIgwAAwAAAAAAAFSEAWAAAAAAAACAijAADAAAAAAAAFARBoABAAAAAAAAKsIAMAAAAAAAAEBFGAAGAAAAAAAAqAgDwAAAAAAAAAAVYQAYAAAAAAAAoCIMAAMAAAAAAABUhAFgAAAAAAAAgIowAAwAAAAAAABQEQaAAQAAAAAAACrCADAAAAAAAABARRgABgAAAAAAAKgIA8AAAAAAAAAAFWEAGAAAAAAAAKAiDAADAAAAAAAAVIQBYAAAAAAAAICKMAAMAAAAAAAAUBEGgAEAAAAAAAAqwgAwAAAAAAAAQEUYAAYAAAAAAACoCAPAAAAAAAAAABVhABgAAAAAAACgIgwAAwAAAAAAAFSEAWAAAAAAAACAijAADAAAAAAAAFARBoABAAAAAAAAKsIAMAAAAAAAAEBFGAAGAAAAAAAAqAgDwAAAAAAAAAAVYQAYAAAAAAAAoCIMAAMAAAAAAABUhAFgAAAAAAAAgIowAAwAAAAAAABQEQaAAQAAAAAAACrCADAAAAAAAABARRgABgAAAAAAAKgIA8AAAAAAAAAAFWEAGAAAAAAAAKAiDAADAAAAAAAAVIQBYAAAAAAAAICKMAAMAAAAAAAAUBEGgAEAAAAAAAAqwgAwAAAAAAAAQEUYAAYAAAAAAACoCAPAAAAAAAAAABVhABgAAAAAAACgIgwAAwAAAAAAAFSEAWAAAAAAAACAijAADAAAAAAAAFARBoABAAAAAAAAKsIAMAAAAAAAAEBFGAAGAAAAAAAAqAgDwAAAAAAAAAAVYQAYAAAAAAAAoCIMAAMAAAAAAABUhAFgAAAAAAAAgIowAAwAAAAAAABQEQaAAQAAAAAAACrCADAAAAAAAABARRgABgAAAAAAAKgIA8AAAAAAAAAAFWEAGAAAAAAAAKAiDAADAAAAAAAAVIQBYAAAAAAAAICKMAAMAAAAAAAAUBEGgAEAAAAAAAAqwgAwAAAAAAAAQEUYAAYAAAAAAACoCAPAAAAAAAAAABVhABgAAAAAAACgIgwAAwAAAAAAAFSEAWAAAAAAAACAijAADAAAAAAAAFARBoABAAAAAAAAKsIAMAAAAAAAAEBFGAAGAAAAAAAAqAgDwAAAAAAAAAAVYQAYAAAAAAAAoCIMAAMAAAAAAABUhAFgAAAAAAAAgIrYtbdnAAAAAAAAAF6sNm3aFC0tLT3yWIMGDYrBgwf3yGPB8zEADAAAAAAAANuxadOmeMlLXhIrV67skccbP358LFmyxCAwO5UBYAAAAAAAANiOlpaWWLlyZSxdujSampq69Vhr166NiRMnRktLiwFgdioDwAAAAAAAANCFpqah0dQ0tJuPsrVH5gV2ZJfengEAAAAAAAAAeoYzgKGPamtrixUrVsSIESOioaGht2cHoFe0t7fHunXrorm5OXbZpX9+r00/AKjp7z1BPwCo6e/9IEJPAIioVj/YsGFDXHDBBTFy5MjYsGFDzJ07NxobG7eZ7rLLLovf/va38dRTT8V5550XBx98cEREfPSjH42LLrqo07Tvfe97Y+7cufWYfXqJAWDoo1asWBETJ07s7dkAeFFYunRp7LXXXr09G71CPwDorL/2BP0AoLP+2g8i9ASAP9Sz/WBrdP8SzuX5s88+O2bOnBkzZ86Mq666KmbNmhWXXnppp2luvvnm+M53vhPXXXddrFu3Lo488shYtGhRDBs2LJYsWRI33nhjjBw5MiIiPvnJT8app57azefBi11De3t7e2/PBFBuzZo1MWrUqFg6OKKp5MucB5TX+tbPyzMzx5Vn4o5E5opE5gOJzMBE5vE3lmcWXFscWXhaeZnXln7958kLy4tES3nkXZfueJo/Vv6SRSxMZNoSmbPKI6fdWZ65/tjyTHxrfHnmGyuLI6/+u/IyXymYdn1EHBMRq1ev7tiJ7W86+sGYiKaCL7Q+9fjOm6c/NCCRaVqzd3nofb8rzyS2H+3lq0E0rPlgeeiH5Zn/nVleZnjh9Ic8WV4jdk0caL9yWXkmsQjEGxKZ/1seWZXYJfjn8kj8QyLzsjWHl4f+ZHFx5NX3lZc5qHD6LRHxjei/PSHbD+LPymv9+2XlmXe8sjwTn05kni6PrD2hPNM0ujwTS/Yrz6y8tziyMFGmdEswZM3ryovEnuWRmVcWR37zw/IyL/tleSYmJDJHl0dOe6A8c/07yjPx8US/vrq8Xx9xTnmZnzSVTb+2PWLiuv7bDyKe6wn3RsSIgtywPy2vddmC8kxmyGGPexKhTycyV5VHFm4sz7x2TWJl+OC/FUdWfaq8TOma/Yo1iSZ/V+LDxhvKI49fUp4Zl8jEkkRmc3lk5n+UZ761f3kmPpfIrCiPHPHX5ZkvFky7ISJOjJ7pB2vXro2RI0fGmjWPRVNTYWPa7mPtEWvWrHlBj7VixYrYe++946mnnorBgwfH448/HpMnT47HHnssRox4bit/4oknxpve9KY488wzIyLi5JNPjpkzZ8Zf/MVfREtLS+y2224d0x599NFx66239vkzo+maM4Chl73Qyzf8sWcv4dPUUDgAnPgkPvOz9kUfOnWEEpnBiUzm6keZTFNi1HhYXSJly0xERFOdXuhB9SlTPOIRkRsATqxvmcbclAolVtLExiAz+FfyAcWzqnBZs273g13K3tbW7IwWSg0ANyVSO36ptpVYDTLfnGzIbEPr1A9KN4ep49xdEy90ZsHJbAYyX/BKvNBbEmUys5Zpb02ZJpJ4fzJvaWa3IKLv94R694PMCz2kPBKZTXtqoa7T25873km8CBvKI6njg8Lph2SOdTILW2ITldoWZnZAMz2xXscHmf2izEKd2Bik9g2T63V/7QcRzz33EVG2qA5LLHCZnpBa5TKhzLqQWGxS293MipqIZPZDy48REmt2ZmOdOKzalCiT+ggss6wlDi5TPSGz4c0s1HX6zCi1e9jH+8GCBQti7NixMXhwbeEcN25cNDY2xuLFi+O4446LiIjW1tZYuHBhXHDBBR25fffdNxYuXBhvf/vbY9iw597Uu+++O6ZNm2bwtx/wDkMvO/vss+P444+POXPmxGGHHRazZs3q7VkCoBfoBwBE6AcA1OgHAC9GW3voVjsT+A9vmzdv/7Tw5cuXx+jRnS8/M3z48Fix4rnTrletWhWbNm3qNN0fT/Os6667LmbOTFxCjD7HADD0ohUrVsQ111wTM2bMiIiIGTNmxLx582LdunW9PGcA1JN+AECEfgBAjX4AUH0TJ06MkSNHdtzmzJmz3ekaGho6zv59VktLSwwcOLDTNBHRabo/nuZZP/zhD+N1r8v8nAd9jUtAQy96IZdveNbmzZs7fQto7dq1dZ1XAHYe/QCACP0AgJqSfhChJwDUz3Nn8HbvMSKWLl3a6TeAn+8y/83NzbFmzZpO961fvz6am5s7/h4zZkw0NjZ2mm7dunWdpomofcFo7NixL/gnBejbnAEMveiFXL7hWXPmzOn0jaCJEyfWazYB2Mn0AwAi9AMAakr6QYSeANAXNTU1dbo936Ds9OnTY9myZdHS0hIR0dELDj/88I5pGhoaYvr06XH//fd33PfAAw/E9OnTOz3W9ddfH6eddlpPPxVepAwAQy96IZdveNasWbNizZo1HbelS5fWazYB2Mn0AwAi9AMAakr6QYSeAFBlEyZMiBNPPDEWLlwYERE33XRTnHPOOdHY2BizZ8+ORx99NCIizj333LjxxhsjonYliOXLl8fpp5/e6bG+973vxcknn1zfJ0CvcQlo6EUv5PINz2psbHRpBoCK0g8AiNAPAKgp6QcRegJA/bRG9y8B3VqcmDdvXlx44YWxaNGiWLVqVVxyySWxadOmmD9/fpx66qkxYcKEOOWUU+Kuu+6Kiy66KFatWhXz58/v9GWitWvXRkNDQ6fLTlNtBoChF02fPj3OOuusaGlpiUGDBm338g0AVJ9+AECEfgBAjX4AwB8aO3ZsXH755dvcv2TJkk5/X3jhhc/7GE1NTXH99df3+Lzx4uUS0NCLnu/yDX98mR8Aqk0/ACBCPwCgRj8AeLHa2kM32PmcAQy9bHuXbwCg/9EPAIjQDwCo0Q8AgO4wAAy97Pku3wBA/6IfABChHwBQox8AAN1hABj6uikRMaBg+n3KS5ywuDwTRycywyeVZ/Z5pDyTmbdhiUy8ujxy0PziSObpxKtKA8cliqwpjxyUKLMikdl/aHlm49PlmcTzed0vyzPl72dExAnlkUO+XBzJLJ97v+SFT7u2LSIeThSpor2iqB/stilRI3PFudRV6hIrz9T7yjP7lUcaEpuPiIPLI1PrEilvb7tmqiTez8mJ/p6ReTqJfakxI8szByTa6AHlkUg1kSm3F0f2uae8TOnzyWzWKmlKlB3pJ7aFh5VHIg5NZDIL9erySFPBvkeHxLYgtf81oXzJPiQeLM4MeWlpIvFcYkp55IDLiiMH/qC8TOy9eyJU/KJFHFC+/Tz03vIyuZU08Z4emnh/yqtEHFs4/ZaI+O9MoeoZtlvEsIaCQGLf6E/KIzF+r0Roz8QvGU5tK8+8vDxySOZzs9QxT3lkTOK1HrGsNJHYn5yYeNES+wW7Z5a1xOY9WhOZhCMyocyGN3OcNKI8ktk9PLjxhU+7tj0iWhJFutQTl3B2CWjqw28AAwAAAAAAAFSEM4ABAAAAAACgS84Apu9wBjAAAAAAAABARRgABgAAAAAAAKgIl4AGAAAAAACALrU+c+vuY8DO5wxgAAAAAAAAgIowAAwAAAAAAABQES4BDQAAAAAAAF1qjYitPfAYsPM5AxgAAAAAAACgIpwBDAAAAAAAAF3aGt0/A7i7eXhhnAEMAAAAAAAAUBEGgAEAAAAAAAAqwiWgoa9bH2Vf5WgrLzGsPBIxKJFpf6Q883SiTuI1iKGJTCwvj2wpjwwoj0QMLg0knktsqksk9d5sTSw4GxJ1Eu/nwESZWJMJPVEeSbxsI8ojZduP1kyBino4yvpBYvmMUYlM8fYmIuJH5ZHViTKZ1yCTiTvKI4+XRzLtrfjt2fpgeZFdx5ZnMv1gXCKT+TrsukQmsdxkns6TiczudVo+G8sjZK2Jsh3ERH9Ptd/Mep1Y1lL7bJsTmczziWWJzMriRKpVFb+pmeODxE5B5ngvZXUiU/7eZJablvJI7ulkls9MT8wofRFSK0E1tT8V0V4wfUNiGzqxPJI7rngksbe7OlEnsanaLbWj86vySGabmHg+g4aXJh4oL5Lp8Zl1uzmRyfT4VYlM4gOTPRJl6tXiMj0htf0oed3aIvfedMkloOk7nAEMAAAAAAAAUBHOAAYAAAAAAIAuOQOYvsMZwAAAAAAAAAAVYQAYAAAAAAAAoCJcAhoAAAAAAAC61Brdv4Rza0/MCOyQM4ABAAAAAAAAKsIZwAAAAAAAANClrdH9M4C7m4cXxhnAAAAAAAAAABVhABgAAAAAAACgIlwCGgAAAAAAALrkEtD0Hc4ABgAAAAAAAKgIZwADAAAAAABAl5wBTN9hABj6uvUR0VAw/abyEo+XR2L8k4nQukRmdZ0yLYlMrC+PJF7sxFsaw4rfnycSVRLPf3OizKpEJvOiPZ3IbCmPZJ5ObMiElpdHEq9bZrUuej5tmQIVNSrKru1yYKLGQYnMqEQmxpdHDlpRnkmso3FvIhNTyiNTE1XGlmeKZ23X5kSR48ojBy8uz7y8PBL7JDIHDyrPHFW+I/F3/1teJrPqpF645luKI8eXVymes8SeRzVtjrJ+kNgWTimPRAxLZNYmMpmdjxF1ymR2ptrLd0J3z1zrbUxpYHWiSOLDzoGJMhMTmfbEAV9DfT68nZIJZfZxUgdJ5SZnQqMKp089/2pq2C2ioeQzo8SuXmt5JGJwIpNZt/dIZDLzljouTewjj/tUeWZUeaR8E39weY2p3yvPPFweicSue2qfeq9EJrFvlNpSj0tkpiQyic+mUpvrkn2W1kh+0AbV4BLQAAAAAAAAABXhDGAAAAAAAADokktA03c4AxgAAAAAAACgIgwAAwAAAAAAAFSES0ADAAAAAABAl1qj+5dwbu2JGYEdcgYwAAAAAAAAQEU4AxgAAAAAAAC6tDW6fwZwd/PwwjgDGAAAAAAAAKAiDAADAAAAAAAAVIRLQAMAAAAAAECXXAKavsMZwAAAAAAAAAAV4QxgAAAAAAAA6JIzgOk7DABDX9caEQ0F028qLzF+RnkmDkhkHkxkVicyRyUyeyQy8VB5ZHB5ZNhB5Zn4k9LAE4kiy8sjoxNlTklkMh5KZIaWR96cKBOtmdDq8siA8shp5ZGIQwum3RIRKzJFqqf1wbJFYcDDiSIrE5nEdi3O/UV5ZmGizo8TmYcSmfh6eeT28sh9iU31lMLMoEcSK9ykK8szPymPxNJEJrX9aCmP/G955LubyzMHJNbrKXF1eejX5ZHEIh1PFk6f2M2tpiei7PjgofISe760PJPZj4gHEpmHEpnmRGZcIhP3lkcy27apiUzxa5B4LpmPoAYmyhyWyDyeyMQj5ZF15ZHM4WtquYkflUdWl0cOLI9EjCmcPtFDq2rDU2Wb32GJ7W6qJ0xMZDL7+5nPmTLb90MSmfhMeSTxMUvmc4mYUhr4n/IaPyuPpHb26tUT7kpkEv362ESZ1L5R4pA848hMqGSZTn1eBtXhEtAAAAAAAAAAFeEMYAAAAAAAAOiSS0DTdzgDGAAAAAAAAKAinAEMAAAAAAAAXWqN7p/B68eJqQ9nAAMAAAAAAABUhAFgAAAAAAAAgIpwCWgAAAAAAADoUmt0/xLOLgFNfTgDGAAAAAAAAKAiDAADAAAAAAAAVIRLQAMAAAAAAECXtj5z6+5jwM7nDGAAAAAAAACAinAGMAAAAAAAAHTJGcD0HQaAob/JnPe/LJGZmMiMSGQGJjJP1qlOjC2PDEiUeTyR2VAaSDyXjC2JzKpEZlAiMyyRSTyfhxJlDsy8bjG8PJLYfiwtj5Qt0/aZOwxojhhQ8h5NTRQ5NpEZlciMfUV55vg7yzNjyiPx60Qm3lweOepbxZF9E6t1HFw4/aRJiSJnlUeOuag8M708ktpfecXo8sxry5vVSfeWl0n10czyuc8XiiOvWlJeZr/C6Yt3b6pqQEQ0FEw/OFEjs//Vmshkjg9GJTKbEpnU+pbYpx56X3lmXXmk/PnskShSp2OKzPMfmshkjt0S+9OZw73UvGXen0EriiOZzUfxBr4lU6SadonCxa5ePSHTtEclMpnnk+kJaxKZmFIeqdfzKc4kesLI8kjq87xMT8h8Bph5bxLb6rr1hMw+WGLfKPV8ni6YNrP/CRXiEtAAAAAAAAAAFeEMYAAAAAAAAOhSa3T/cnROTaY+nAEMAAAAAAAAUBHOAAYAAAAAAIAubY3unwHc3Ty8MM4ABgAAAAAAAKgIA8AAAAAAAAAAFeES0AAAAAAAANAll4Cm73AGMAAAAAAAAEBFOAMYAAAAAAAAuuQMYPoOZwADAAAAAAAAVIQBYAAAAAAAAICKcAloAAAAAAAA6JJLQNN3GACGvm73iBhQMP24RI1BiczkRGaPRGZ8IjMlkWlOZGLv+tTJvNbFr9u0RJFl5ZHM829MZAYlCo1bUZ5JlJlaHkmGXlYemXhneaS8SsR+BdO2RMRPM0UqaHTs/H6Q2U5n6mQ2bM3ly2esLI+kMpkXLvO6ZTKjSwOZxrtXeaR4viJiTJ0y8dLyyLjF5ZlN5ZFUJrO+jSqPZBbP0qVtXaJGJe0WZdf6GpWokWnwmc1HZluwOpHJzFvq+CCxvo39SXmmua08U7ySTimvkTk+qsfGIyJi+NBEaHB5ZMyq4khqfzoVSvS3PcqPkVK7hlMKp0/1w2oaMiRiSENBILPdzWwPM5l67R/vmciUr9qR6gmZfdfMNnF1aWBKeY2m8kjquWQymde5TutOavcjE8o8n5LPI56R6gklPW5rRDyQKQLV4BLQAAAAAAAAABXhDGAAAAAAAADoUmt0/xLOrT0xI7BDzgAGAAAAAAAAqAhnAAMAAAAAAECXtkbqB4+3eQzY+ZwBDAAAAAAAAFARBoABAAAAAAAAKsIloAEAAAAAAKBLLgFN3+EMYAAAAAAAAICKcAYwAAAAAAAAdMkZwPQdzgAGAAAAAAAAqAgDwAAAAAAAAAAV4RLQAAAAAAAA0KXW6P4lnFt7YkZghwwAQ1/3SEQ0FEw/sLzEx+4qz8z6Vnmm4ezyTCwtj6z8ZHkmc7mE3d/9X+Wh68sjX/lxeea1hZlJn7iivEisL498tTzyu2+XZ/bee0V5aGh5JL5RHnlLoswdiWUgWuaXZ+r0fL7xHy982g2Jx6+swn6w/FeJGt8sjwxOlBnT/p3y0GcTha4tj2xYVZ4Z9qlLy0NfLo98f0l5ZkBh5tj7FpcXGZXIfL488vv3lWd2n16eiTeVP59Hri4v89HySPxjIjMtZpeHbiuPfKA8EgcWTt+SqFFJbYXTrysvcWaih3wp07TfkMjsUx75beLYZXJ5JIZ8fGF56JHSNzTisl+WlzmiMHPglT8qLxK/LY8k3pvLflae+bt/fLo8NDWRuaM8clJ5JJYuT4Qy709ikT6zPBKnvL9sescIz9m4sexjoCG/Lq/x74nPjGYmMrvPKs/EvYlMYj98QWJz8KexqDyUiPw+8ZnJg4XTH5H5MOvu8kj8sDzy0CXlmSmJz06LX7SI1PL5wUSZazKvdWbdWVkeyRzzTPnBC5828cnki9aGDRviggsuiJEjR8aGDRti7ty50djYuM10l112Wfz2t7+Np556Ks4777w4+OCDO/3/I488Ev/5n/8ZU6dOjUMOOST22Sex80yfYQAYAAAAAAAAurQ1uv/LquVnEJ999tkxc+bMmDlzZlx11VUxa9asuPTSzl82v/nmm+M73/lOXHfddbFu3bo48sgjY9GiRTFs2LCIiPjZz34W//qv/xpXXnllDB2aOdOFvsZvAAMAAAAAAMCLzIoVK+Kaa66JGTNmRETEjBkzYt68ebFuXedL+cydOzdOPfXUiIgYMWJETJ48OebPr10B8Iknnoi/+Zu/iX//9383+NuPGAAGAAAAAACAOlm7dm2n2+bNm7c73YIFC2Ls2LExeHDtR7bGjRsXjY2NsXjxcz9P1NraGgsXLozJk5/7oZJ99903Fi6s/V7Dxz72sZgyZUp86lOfiuOOOy6+/OXE9e7pcwwAAwAAAAAAQJe29tAtYuLEiTFy5MiO25w5c7Zbcfny5TF69OhO9w0fPjxWrFjR8feqVati06ZNnab7w2m+9rWvxUknnRQf/vCH4yMf+Uj83d/9Xdx4443dfC14sfMbwAAAAAAAAFAnS5cujaampo6/GxsbtztdQ0NDx9m/z2ppaYmBAwd2miYiOk337DSrVq2KRx99NF772tdGRMSRRx4Zr33ta+Oqq66KE088sceeDy8+BoABAAAAAACgTpqamjoNAD+f5ubmWLNmTaf71q9fH83NzR1/jxkzJhobGztNt27dumhubo6tW2tnHLe2tnb83yte8Yq4++67u/sUeJFzCWgAAAAAAADoUs9dAvqFmj59eixbtixaWloiIjou63z44Yd3TNPQ0BDTp0+P+++/v+O+Bx54IKZPnx7jxo2L8ePHd/q/XXfdNV72spcVzQd9jwFgAAAAAAAAeJGZMGFCnHjiibFw4cKIiLjpppvinHPOicbGxpg9e3Y8+uijERFx7rnndvyu79q1a2P58uVx+umnR0NDQ/zjP/5jXHvttR2P+fOf/zzOOeec+j8Z6soloAEAAAAAAKBLrc/cuvsYZebNmxcXXnhhLFq0KFatWhWXXHJJbNq0KebPnx+nnnpqTJgwIU455ZS466674qKLLopVq1bF/PnzO34T+L3vfW9ccMEF8cEPfjDa29vjvPPOi5e+9KXdfB682BkABgAAAAAAgBehsWPHxuWXX77N/UuWLOn094UXXrjd/C677BKf/OQnd8q88eLlEtAAAAAAAAAAFeEMYOhvBpdHpiTKNIxOhDIGlEf2SJRpSH1dJlFpRHlkz/JIIjM+UWV1eSSx3OydeW/GJTKZq7skns8eDyfqDExkBg0tz4x8ujjSXF6lKLM+8fiV1RoRDS988i2JEi2JzIZEZkxmF3VTYu4SM5d5DYbF2PJQYr3OvKfFhiUyic1NZpu7KVEmtW1P7Htk5u2hRGZ1IhMxqjwycFVxpLyDlL9udVkH+oJNUfZV78R68PLySGpRq8uCE7njgyEjE6E6fQQzJZHZqziReS7DyyOJ46MDyyMRjZlQwqDyyD6ZOvXaICY+X5iaKDOscNFpbY/cTmgFDYrCxS6xr5c5HE0sOqntQapQ4gkldg8jInHp1cRrkNl9L89MKS+yx4ryTOL5ZxabzGc5qR3xxLY6deHhzEqaeQ0S+2CZdafk8LIt8fg71hoRW3vgMWDncwYwAAAAAAAAQEU4AxgAAAAAAAC6tDWKLr/2vI8BO58zgAEAAAAAAAAqwgAwAAAAAAAAQEW4BDQAAAAAAAB0ySWg6TucAQwAAAAAAABQEc4ABgAAAAAAgC45A5i+wxnAAAAAAAAAABVhABgAAAAAAACgIlwCGgAAAAAAALrkEtD0Hc4ABgAAAAAAAKgIZwADAAAAAABAl1qj+2cAt/bEjMAOGQCGvm50lJ3LP7C8xOrySK6P7Za4KMGItuLIlvIqEeVlYlAMz4SKbSqPFGeGxeBElVHlkcTr/GQiM6Y8EjEiEyq3ORManQmNLY8MeqQ4sqG8StFikHj7q+slETHghU8+7lflJTLbm8zWI+LV5ZHJt5Rnmssju60oz0TsVx6ZWB4ZVx6JltLAHokiuyY2UqNXFUeGPVZeJtUQEu/N+ESZPROZxJIWEa8sj+zx/eLI6IfLy5SuoqkeWkW7RVE/iKHlJRK7rKk6qX2cp8sjwxJlcqFR5ZER5ftfiUO+okWmZmSiSmKvILcjUS6zUGeW6UQmtahldgoyxwfDfl8cySyf0VQ4fVvkDkQqaMCgiAHdHafYgdWJTGJTHU2ZlSGzwCU+NHoxL26ZY7i1xYk6Xc428d48nigzJvOilTfS1JuTmbVUI8k8n4TMulOyGKQ+A4YKcQloAAAAAAAAgIpwBjAAAAAAAAB0qSfOeK/TWfP0e84ABgAAAAAAAKgIA8AAAAAAAAAAFeES0AAAAAAAANAll4Cm73AGMAAAAAAAAEBFOAMYAAAAAAAAuuQMYPoOZwADAAAAAAAAVIQBYAAAAAAAAICKcAloAAAAAAAA6FLri+QxYMecAQwAAAAAAABQEc4ABgAAAAAAgC5tjYj2bj6GM4CpDwPA0MetWhmxpWD6MZvKa6woj8Tv15Rndr+1rTz0i/LIveWRaExk9t14TXko8XweLI/E1MLpp8UViSpbyyO/Lo9kls8xP02EhiUyd5VHVibKxO2JzG8eKc8sKo8kNgVxd8G0Tycev6pW3VXWDxKrW9Hjd8fxd9xSHvpeeWT5kvJMZh19ZVxcHvpueSTRQmJg4fSvTrzOMXRVcWTDPeVlSrYdzzoms/1sLo8kNp+pdfQHiczpv/l+caZ1cXmdzP7K4MLpE3se1bQ8IhoKpk/sTN1RHsnthD+QKVQus/2YnHjddmu5szx0f3kk81KPKJz+lfGjRJW9yiOJjUfm/TzioUQoY2l5JNMPUgvBxsQrl1g+M6v1k4Xr27pEjaq6pyVieMH0L0scKycW69RyPf6/E6HbyiP3JQ4yM/s50fKp8kxipzKzTSx9T199T2LncGF5JPN+PpQoMy2z8/5YIrO6PJI5Hm1PHF43ZA4sEhuD8iPFsuPejYnHhypxCWgAAAAAAACAijAADHVw++23x/777x+jRo2K888/v+P+DRs2xDnnnBOzZs2K8847LzZv3tyLcwnAzqYfABChHwDwHD0BoC/Z2kM32PkMAMNOtn79+rjlllviRz/6UVx99dXxb//2b/GDH9Suo3H22WfH8ccfH3PmzInDDjssZs2a1ctzC8DOoh8AEKEfAPAcPQEA2FkMAMNOtuuuu8bs2bNj9OjRcfLJJ8chhxwSAwYMiBUrVsQ111wTM2bMiIiIGTNmxLx582LdOr9WA1BF+gEAEfoBAM/REwD6GmcA03cYAIadbPDgwdHQ0BARtcv3HHjggfGnf/qnsWDBghg7dmwMHjw4IiLGjRsXjY2NsXjx4t6cXQB2Ev0AgAj9AIDn6AkAwM5iABjq5Pbbb48ZM2bE+vXrY+PGjbF8+fIYPXp0p2mGDx8eK1as2G5+8+bNsXbt2k43APoe/QCACP0AgOfoCQBATzMADHUyderUOOOMM+Lmm2+O9773vdHQ0NDxTc5ntbS0xMCBA7ebnzNnTowcObLjNnHixHrMNgA9TD8AIEI/AOA5egJAX+ES0PQdBoChTsaPHx9nnHFGfOITn4iFCxdGc3NzrFmzptM069evj+bm5u3mZ82aFWvWrOm4LV26tB6zDUAP0w8AiNAPAHiOngAA9DQDwFBnhx12WOy5554xffr0WLZsWbS0tEREdFzG5/DDD99urrGxMZqamjrdAOi79AMAIvQDAJ6jJwAAPcUAMOxkmzZtip///Ocdf3/3u9+N888/PyZMmBAnnnhiLFy4MCIibrrppjjnnHO2ucQPANWgHwAQoR8A8Bw9AaCvaY3uX/65te5zTf+0a2/PAFTdvffeGyeddFK89KUvjaOOOioOP/zwOPnkkyMiYt68eXHhhRfGokWLYtWqVXHJJZf08twCsLPoBwBE6AcAPEdPAAB2FgPAsJMddNBB8dhjj233/8aOHRuXX355necIgN6gHwAQoR8A8Bw9AaCvaY2I9m4+RltPzAjskAFg6ONG7xbR1FAQeHl5jWNvLc/svl95Jg5MZA5IlBmdqJO5YP6Q48szh36/OPLa8ioxbWhp4s2JKqvLI6/6SnHkwAfLy8SrEpkticyR5ZGjE+tbHJHIvCzxm1BHri2OvOqz5WVeVzBt+RxV1+ipEU0F26o/3ZQoMiWRGZHIHLxveebs+4oje/6gvMye95dnIv65PPLmDxdH/mJueZmmgYWBGeU1YtdDiyPDTv1FceaYAcWRiKMTmVPKI8d/tzwzfkl5JrWP87LpxZEBr7mlOHNGor8dXDj90xHxv+VlqmdElO27JrbTB5dHIiYmMpke0lIemZoo05RZ3wYV74RHjHq6OJI5FCt/DcYnqowpj+xRHjng3vJMZtZSy+e48shBT9SnTgwZlKhTvsIlPpKIMYXr28D2iHgqUaiC9h9W+JnRCeU13nx1eeaIxLqd2QeLh8oj+24oz4z5ZXkmBr2/PDOj/BjhmF+Xl1m7/e8kPL/9EwcJA75XnhlWHjmx/LAi4rREJvPZVOL45bS7yjMNbyjPxKmJzKryyAmfL8/8VcEx7Nr2iHdsLa8BVeE3gAEAAAAAAAAqwhnAAAAAAAAA0KWt0f3zKl0CmvpwBjAAAAAAAABARTgDGAAAAAAAALrkDGD6DmcAAwAAAAAAAFSEAWAAAAAAAACAinAJaAAAAAAAAOiSS0DTdzgDGAAAAAAAAKAinAEMAAAAAAAAXWqN7p/B294TMwI75AxgAAAAAAAAgIowAAwAAAAAAABQES4BDQAAAAAAAF3aGhEN3XwMl4CmPgwAQ1+3Osp6zrryEs3lkdz1BR5MZB5PZAYnMgMTmfh5eSTxfEaURxKvQeK5xBPlkacTZTIvQGa5Saw7meezZ6JMrE1knkiEVpVHMtuPksWzJfH4lbUsivrBxs3lJYasLs+ktrm/v68884tEnV8nMksTmfif8khi3laUR2L1lrLpJ92dKNKceHPuT9RZk8gMTWTGl0dalpRnfloeib0S2+ndtt5SHkosbJnWu7xw+k2JGpW0LsqODxLrzgHlkVw/KF0IIlL7X02Zff2Ricz6xMzVaf9rt+LX4IFElcRaOqA8sk95pHZcXSpzzFvYdyMiDkyUiQ2JzBOJPevEWzqtPFK+vrVFxFOZQtXTsqHsmGlQomGPKo/k/DaReSyRSaynmRaXOkbI7FAlnk95W1xUXuTh8kjq+Wd6fKL3pg7GEgvOmESZ1PPJvD+ryyPjEmWitWBa46z0cy4BDQAAAAAAAFARzgAGAAAAAACALrkENH2HM4ABAAAAAAAAKsIZwAAAAAAAANAlZwDTdzgDGAAAAAAAAKAiDAADAAAAAAAAVIRLQAMAAAAAAEBX2tu6fwVnV4CmTpwBDAAAAAAAAFARzgAGAAAAAACArrQ9c+vuY0AdOAMYAAAAAAAAoCIMAAMAAAAAAABUhEtAAwAAAAAAQFdan7l19zGgDgwAQ183IiIadm6JfTKhcYnMgERmYCLTnMgMTWRieHlk5KriSOalLg+NSRRZXx4ZlSiTeT8HJzKrE5nEcjM1USaG1SkzojwyPlFm0MiCadsjYm2iSAW1tpQdQzyWqDE6sVoPTGSGbCjPRPnmM+Lx8sjGNeWZIfFQeSgxbyvKI9FYOP2k1Ykimf6eeD9bEwv1gMyLtrw8sjJRJrEIpDK7ZTYGiUJLE2VK23VLogYRkdjm7pWpk9lvz1iXyBTse3RoSmQyEh8QjsrUKd5vrdPHSYn99jGZa91lPojdVJ86mcOd1G8LbklkEj0+cUhRvr75YL3Dlih7awcltqH12ryntu+Z9TSxXOcusZnYQ3w6USaxg1S+CVldXiQRSa3bmWORzLL2ZCKT+Kit9PgtIlL7eqn3J7N8JrQULKCOD+jvDAADAAAAAABAV5wBTB/iN4ABAAAAAAAAKsIAMAAAAAAAAEBFuAQ0AAAAAAAAdKUtMj+Uve1jQB04AxgAAAAAAACgIgwAAwAAAAAAAFSES0ADAAAAAABAV1qfuXX3MaAOnAEMAAAAAAAAUBHOAAYAAAAAAICutD1z6+5jQB04AxgAAAAAAACgIgwAAwAAAAAAAFSES0ADAAAAAABAV9oiorUHHgPqwAAw9HWNUXYuf3N5iQETyzNxQCIzMJEZkci8KpEZn8jEQeWRaY8UR4YdUl4m/qQ0UKcXbf87yzN7lUfiwERmSyKzT3nkyFsTdcYlMkOmlmcOeLA48tryKhHHFky7JSL+O1OkegY01G4v1JShiSKZdWdYIjMqkcn0ndXlkSH3J+pktqHTbiiOJNbqmFwayOwTvCSx87HfiuLIgBPKy6SWm2PKI5NGl2dOWVWeybSD2DMxc6PLZ+6ANeVlStvoxvIS1TQoIgr6QWbB2Xe/8kxm1zjVQzIOTWQy28Ph+ybq3Fcc2T3z/hRnMscHLy2P7Fe+/xmDyyOpfjAgkUksN8csSdRJbNpjwqDyzH4txZGjyquUH1Rsjoi7MoWqZ3AUrhKJZXTvdeWZuh1XZHaODiuPDBmZqBMvK49MLf/MKI4ojwxbW5pIvGjNi8szmc8A/yKReXkiszKRSfTr1GcsmfUgcQiX6YuZ5zPoyIJpt0bETxNFoCIMAAMAAAAAAEBXWqP7ZwAn8hs2bIgLLrggRo4cGRs2bIi5c+dGY2PjNtNddtll8dvf/jaeeuqpOO+88+Lggw/u+L8f/ehHcfTRR0dExMCBA+ORRx6J8eNTZz3RRxgABgAAAAAAgBehs88+O2bOnBkzZ86Mq666KmbNmhWXXnppp2luvvnm+M53vhPXXXddrFu3Lo488shYtGhRDBtWu4TCNddcE9///vcjIqKpqcngbz9QcuFYAAAAAAAAoA5WrFgR11xzTcyYMSMiImbMmBHz5s2Ldes6X4N/7ty5ceqpp0ZExIgRI2Ly5Mkxf/78iIi49957Y+XKlfGKV7wiXve618Xhhx9e3ydBrzAADAAAAAAAAF1p66FbgQULFsTYsWNj8ODar7qPGzcuGhsbY/Hi535Lu7W1NRYuXBiTJ0/uuG/fffeNhQsXRkTEV7/61bj++utjwoQJ8Z73vCe2bNlS/NTpewwAAwAAAAAAQJ2sXbu2023z5s3bnW758uUxevToTvcNHz48VqxY0fH3qlWrYtOmTZ2m+8NpPvzhD8eaNWviK1/5Snz5y1+O2bNn74RnxIuNAWAAAAAAAADoSmsP3SJi4sSJMXLkyI7bnDlztluyoaGh4+zfZ7W0tMTAgQM7TRMRnab742kGDRoUf/mXfxnXXnttfP7zn4/W1tbki0BfsWtvzwAAAAAAAAD0F0uXLo2mpqaOvxsbG7c7XXNzc6xZs6bTfevXr4/m5uaOv8eMGRONjY2dplu3bl2naZ517LHHxuTJk+OJJ56IPfbYo7tPgxcxZwADAAAAAABAnTQ1NXW6Pd8A8PTp02PZsmXR0tISEdFxWefDDz+8Y5qGhoaYPn163H///R33PfDAAzF9+vTtPuakSZNi991376mnwouUAWAAAAAAAADoSg9eAvqFmjBhQpx44omxcOHCiIi46aab4pxzzonGxsaYPXt2PProoxERce6558aNN94YEbXfF16+fHmcfvrpERFxxRVXdJwdfO2118bb3/72jstGU10GgAEAAAAAAOBFaN68efH1r389PvKRj8Sdd94ZH/3oR2PTpk0xf/78ePjhhyMi4pRTTokDDzwwLrroorjwwgtj/vz5MXjw4Ghra4uvfvWrMW3atPirv/qrGDhwYMfAMNXmN4ABAAAAAACgK23P3Lr7GIXGjh0bl19++Tb3L1mypNPfF1544TbT7LLLLnHLLbeUF6XPcwYwAAAAAAAAQEU4Axj6usFR9lWOLeUlfvid8syxD5dnYk7iOyk/TXxl6pPlkRiayFw0uDzzZHnkjl+WZw5+sDDw71vLi8So8sg9iTJXJjKnJTKTE5nS1zlyi+e/F/52SE1i+VxRHvlEeSRe9a0XPu2GxONX1m5R1A9+80R5idU/Ls9kvHq3QeWhO1qKIy3fKy/zeHkk9szscq8sj9xRHolFhdO/OfNN50cSG4+flUf+99byzDH7l2diYHnkjlXlmTPLI3FZIvPK2FQeSiwHBZv2Dn9SOH1iN7eaxkXEgILpx5eXuPTe8sy7m8szcV4iM7U8svHc8syQzPPJ7H+NKo8sSLw/f1KYGRbDy4tE4pji/vLIjxLHr6/+dHkms+5kNrn/nCjz3XGJULy0PLL67uLIv5ZXiTf/V2Ggu2dmVciAXSMGlPzEY+IA67t3lWdOKl90Ii5JZDLHyj8oj9yX+Axs38wGPvGZUfywPPJQ4To0JVaXFynZV3nWL8ojGxMfsqR6fOb5JPr1FxNlPrE5Eco8n8Qx7Lbns+7YYQWfS6xLPD5UiQFgAAAAAAAA6Epr5L5c8sePAXXgEtAAAAAAAAAAFWEAGAAAAAAAAKAiXAIaAAAAAAAAutIe3f+t+faemBHYMWcAAwAAAAAAAFSEM4ABAAAAAACgK63P3Lr7GFAHzgAGAAAAAAAAqAgDwAAAAAAAAAAV4RLQAAAAAAAA0BWXgKYPcQYwAAAAAAAAQEU4AxgAAAAAAAC60vbMrbuPAXXgDGAAAAAAAACAinAGMPR1rRHRXjD9wPISQ8sjya+XJDZJW1rKM4nXIGev8sig8sio8kjEsNLA+ESRJ8ojIxJlRtUpsymRGZzIZAzIhBLrW+L9yaxuwwq2H63tUbYNpMOYRKZ40xHZbxsOL4+MWlUcGTSyvMy4NeWZVD8YVR7JbKm3lAYy2+lMZnR5ZOrTiTqZFy0xb4lITExkMutoxNjyyIhHiiOZl3pc4fSJvcJqGhZl+waJbeFJ5ZGI/RKZzPYjsZ0esn+izpREJl5ZHml6qDhyVKwtzgwqfn8OLq4RMbk8ss+XiyOvTuxGxKTMHsu08si4u4sjry2vkjxITKykU8ufzxHlVSL+pHD6LRGxIlOogpqibId8z/ISqc+MMjtHkxKVmhM7iIl5G/ZweSbi5PLIxPnlmdIdqogY/Vhp4rjyIvvdV555qDwyJLGfE/skMi9meyQymddgVHkk85nR7gWhwe0RsTVRBCrCADAAAAAAAAB0pfWZW3cfA+rAJaABAAAAAAAAKsIZwAAAAAAAANAVZwDThzgDGAAAAAAAAKAiDAADAAAAAAAAVIRLQAMAAAAAAEBX2p65dfcxoA6cAQwAAAAAAABQEQaAAQAAAAAAACrCJaABAAAAAACgK20R0doDjwF14AxgAAAAAAAAgIpwBjAAAAAAAAB0pS26fwavM4CpE2cAAwAAAAAAAFSEM4Chr9sjIgYUTD+qvMSW8kjEsEzo4PLIxMXlmcHlkZw9yiMjyyOpn50o/vrP2ESR4eWRgYkyGxKZzDIwLpEZUR7JvATRnAntVx4ZemdxpGTzlAq1R8TWTJEKOjSKFqDx/5uokWkIqYXgzeWRQ79Qnrm3PDLo8fJMxAnlkcM+VxxJrNWxrjSw+wGJKol+MK28vzcvKy8T+yQyh5ZHJiVegn3Wl2emZdp1Zn07aG5x5KV3JcoUTr+xvEQ1NcZOP9LPtJBpjyVCmX22QYnMg4lMSmZDVb4x+HWiyqGFPbEhViaqJCSWm58ntp+vXJs4FacpUSixL/Wr8kjydI9N5ZFV5ZHflkci7i6cvru/zVglg6NseUi8divKI6llJ9cUni6PFO8g557Onpl1LnM8lng+pYc8TYlelZJ4oZ9cU54Zk3jNUh/mJJ7P6kSZ1KqT6SOJz+cyL/WGgvUg85EhVIkBYAAAAAAAAOhKa3T/i0a+qESduAQ0AAAAAAAAQEU4AxgAAAAAAAC64gxg+hBnAAMAAAAAAABUhAFgAAAAAAAAgIpwCWgAAAAAAADoStszt+4+BtSBM4ABAAAAAAAAKsIZwAAAAAAAANCV1mdu3X0MqANnAAMAAAAAAABUhAFgAAAAAAAAgIpwCWgAAAAAAADoiktA04c4AxgAAAAAAACgIpwBDH3do1H2VY7E1z4eKo/EMb9NhFoWl2fuT9R5OJFJfTPru+WRu8sjmafTvKxs+iHxnUSV9eWRxPv51BPlmd3uKM9EUyKTeD6PJ8rEvZlQ4j29qzyyojwS92154dMmlrLquiuKtvE/Sbx4me1Nxpvj6vLQf5dHVt5WnnmyPBIvi38vD32vPJJ4CWJV4fTn35doVJvKI60/KM9cXh6Jd3w9ERpXHlmQWN++WB6JNyZ64hHxyfJQYt35VnkkHiucfmuiRiU9HREDCqZfU15iXXkkYnUikylUsB/xrNbN5ZkBidct1UXWtxVHni6vUvz27BaJDU7GhvJIavnMNPimwoOqiNR6kHgJki9C6VY3V2d1eaS8TvlqU1ktKyJaCqYf9KvyGr8oj8Q+iffoT+4r3XONiMTzeeqB8sxPyyNxYHypPJR4sX+TaAqle/x7t3+lvMjt5ZFYVJ8y/ydRJ9YmMokPTBJHYxE/S2R+nMgkPgPLPJ+FBdNm9omgSgwAAwAAAAAAQFfao/tfNGrviRmBHXMJaAAAAAAAAICKcAYwAAAAAAAAdKU1kj8V+EePAXXgDGAAAAAAAACAijAADAAAAAAAAFARLgENAAAAAAAAXWl75tbdx4A6cAYwAAAAAAAAQEU4AxgAAAAAAAC60vrMrbuPAXXgDGAAAAAAAACAijAADAAAAAAAAFARLgENAAAAAAAAXXEJaPoQZwADAAAAAAAAVIQzgKGva4qIAQXTTykvsefi8kxMTWQG7VuemXhfeWaP8kgMTGTipPLIAbcWR5rLq8SQvUoTb0hU2VQemXpNcWS3zAvwJ4nM4ERmYqLMLxN1Mst0nFAeOeBbxZGR5VVi74Jp1yYev7J2j6J+cMST5SWOyGwLS3pUh1eXR173veLI+NXlZcavLM9EvLk88tobyiPlVWJQaWDfSYkqxU0nBky/vTjzjl8XRyLemsjMLI/86SfKM/+4uTyTaW8RbymPvPwrxZFTHi4vc2jh9JsiYkF5meoZGGXb3nHlJRKRXGhUIrOlPDJgeKJO6kV4WXlk+LLiyOj4fXFmt+LX4KDiGpl+EKMvK44kdsEjXpI5P+Lg8siYXxRHMochMSwTSiyfe5Q/n1HlVcqPd1ojIrXPVj2DdosY1FAQeHl5jaN/Vp75k8byTOxbvOcacUBLcWS3l5aXOeqB8kzEWeWRQ8v3kV/29fIyY9YXBhrOKC9y1JfLMyvKI6dcVZ6JoxOZpYlMyYcfzzjgpkSdxDIdr0pkEp/PHZAoU/L27JTPjNqeuXX3MaAOnAEMAAAAAAAAUBEGgOF53HRT5itVAFSNfgBAhH4AQI1+AAD0BS4BTb93/fXXx8c//vF47LHHoq2tdv2Ftra2eOyxx2Ljxo29PHcA1It+AECEfgBAjX4AwDZan7l19zGgDgwA0+/97d/+bbzvfe+LQw45JHbdtbZKtLe3x7e//e1enjMA6kk/ACBCPwCgRj8AAPoyA8D0e8ccc0ycc845MXTo0E7377333r00RwD0Bv0AgAj9AIAa/QAA6MsMANPvnXHGGTF79uz48z//84772tvb45vf/GZ89rOf7cU5A6Ce9AMAIvQDAGr0AwC20Rbdv4RzW0/MCOyYAWD6vTlz5sTvfve7uO6666KhoSEiar/psnLlSjv0AP2IfgBAhH4AQI1+AAD0ZQaA6ffe9773xUknnRQDBw7sdP///M//9NIcAdAb9AMAIvQDAGr0AwC20RbdP4PXGcDUiQFg+r3TTjstnn766bj22mtj2bJlMW3atDjxxBPjhBNO6O1ZA6CO9AMAIvQDAGr0AwCgLzMATL/385//PE4++eRoaWmJyZMnR3t7e8yaNSuuvfbamDZtWm/PHgB1oh8AEKEfAFCjHwAAfdkuvT0D0NsuuOCC+H//7//FE088Eb/85S/jjjvuiNtuuy2+8IUv9PasAVBH+gEAEfoBADX6AQDbaO2hG9SBM4Dp94444oh44xvf2Om+UaNGRWNjYy/NEQC9QT8AIEI/AKBGPwAA+jIDwPR7GzZsiPXr18fw4cMjImLr1q1xzTXXxE9+8pNenrMXaG2Uncu/urzE0PJIxJZEpv2+8szKRJ26ebg8sqo8Mrg8EtFWGnggUeTJ8khmuclcyyLxOkdLIrOpPJJ6P9dlQveWRzaURzLPZ0DBezqgPSLaE0W2o8/3g6UR0fDCJ39kc3mJdYnMgPJITIuF5aFfJAr9rDyyNrGdaoqby0OJ55PZUpd+8Xj88kfKi4xIZH5dHrnvifLMvovKM3FAeeS+xLrzv+WRzMsWB8f/lIcSC9vd5ZEYVjh9plVvT5/vB09H2cY3sR+RWA1yBxWZfbbVicyYRGZ0IpOaufKN28RElfLXILGvH8PLI4PKI3tnjg82Fh8gRQxJHIwmzvhJrW+J45CIZeWRxMs2tTwSMa5w+q2ZItvq8/0gI7HOlb49EZHb7mbe2MzByKjySKolZJ5PZvvWVB4Zsb40kRhiyJwBOaI80jA2UWdgIpN5Pol9o9T6llivU88n8QHQqESZppLv4LRHzx0kPKstUv1vm8eAOjAATL939tlnxxFHHBFDhw6NLVu2xJIlS2LYsGFxww039PasAVBH+gEAEfoBADX6AQDQlxkApt+bNm1a/PznP4///u//jgceeCAmTZoUf/ZnfxZDhgzp8Vq33357/PjHP4699947jjnmmBg8eHBccMEFMXLkyNiwYUPMnTvXpYQAeol+AECEfgBATT37QYSeAAD0LAPAEBGNjY3xhje8odN9P/vZz+Kwww7rsRqXX355LFmyJD760Y923PfXf/3XMXPmzJg5c2ZcddVVMWvWrLj00kt7rCYAZfQDACL0AwBq6tEPIvQEgD6jNXKXyP7jx4A6MABMv3PqqafGOeecEyeeeGLH3+vXd/5xi/b29rjnnnti5cqe+YHZBQsWxNe//vW46aabOu5bsWJFXHPNNfHFL34xIiJmzJgR73znO+NDH/pQjBiR+FELAIroBwBE6AcA1PRGP4jQEwCAncMAMP3OW97ylnj5y1/e8ffUqVNjjz32iAkTJkRDQ0NE1Hbov/Od7/RYzXe/+91x9NFHx9///d/H7373u7j44otjyZIlMXbs2Bg8eHBERIwbNy4aGxtj8eLFcdxxx23zGJs3b47Nmzd3/L127doemz+A/kg/ACBCPwCgpjf6QYSeANCnOAOYPsQAMP3Om9/85k5/z5o1K0aPHh0DBw7suG/r1q1x8skn90i9e++9N+6444648sor48ADD4y5c+fGCSecEO9///tj9OjRnaYdPnx4rFixYruPM2fOnPjQhz7UI/MEgH4AQI1+AEBE/ftBhJ4AAOw8u/T2DEBvmzdvXqed+YiIZcuWxeWXX94jj/+b3/wmRo8eHQceeGBERLzrXe+Ktra2aG9v7/gm57NaWlq2mZdnzZo1K9asWdNxW7p0aY/MHwA1+gEAEfoBADU7ux9E6AkAwM7jDGD6rcsuuyweffTRuPnmmzsu5fOsVatWxX/+53/GrFmzul1n69at0dr63HUdhgwZEvvss09s2bIl1qxZ02na9evXR3Nz83Yfp7GxMRobG7s9PwB0ph8AEKEfAFBTr34QoScA9Dltz9y6+xhQB84Apt/6m7/5m3jkkUdi9erVsWTJkk63jRs3xle+8pUeqfOKV7wiVq9eHU888UTHfbvuumvstddesWzZsmhpaYmI6LiMz+GHH94jdQF4YfQDACL0AwBq6tUPIvQEAGDncQYw/dagQYPisssui1tuuSWOPfbYnVZn2rRpMWPGjLj22mvjne98Z6xevTq2bt0ab33rW+OGG26IhQsXxvHHHx833XRTnHPOOdtc4geAnUs/ACBCPwCgpl79IEJPAOhz2iKidYdT7fgxoA4MANOvNTQ0xEEHHRRz5syJf/iHf4ghQ4bE7bffHk8//XS87nWv67E6V111VZx//vmxcePGWLp0afznf/5nDBgwIObNmxcXXnhhLFq0KFatWhWXXHJJj9UE4IXTDwCI0A8AqKlXP4jQEwCAncMAMP3e//2//zeeeuqpOOuss2LIkCFx1FFHxaWXXhp33XVX/MM//EOP1Bg7dmxcffXV273/8ssv75EaAHSPfgBAhH4AQE09+kGEngAA7BwGgOn3Xv7yl8enPvWpTvcdddRRcdppp/XoDv1O81hENBRMP7K8xAHlkZzbE5kHEpkRiUzqKktfL488WB4ZWh6JGFga+K9EkWXlkVWJMuMSmd8mMo8lMonnc2CiTGa5iSfuLs/cXx6ZVh6J9oJL4bQnHv/59PV+sPapsukzm88NiUzmykjT7nm6PHRveeShLeWZJ8sj8cr4ZnmoPqtoucR8lfeciLVP7HiaP5ZZpvdNLDfxq/JIZjO9IpHJ1Dn4vt+XhxILWz2ez9ZEje3p6/0gfhtlxweJffDUVesy24+Ficzjdcrsksg8dUN55hflkczTaVpZmvh8osr48khie7MxsYAOySxrIxJbtrvKIwPKIxG3JTKn3FKeWVQeSW0/Svt1D11as8/3g4hY9VREyS7vmMQ2p6k8ErE6kbkx8cYmnk9m3lLraVxcHknsh0bx9j2ipXD6YVsvKy/yg/JIal8iI7PcJLbvmc8nMx+BpZ5P5v1ZVx4ZnSjz5OYXPm1ilnasLbrfZ1wCmjoxAEy/N3jw4GhpaYlBgwZFRMTGjRvjkksuiTFjxvTynAFQT/oBABH6AQA1+gEALxYbNmyICy64IEaOHBkbNmyIuXPnRmNj4zbTXXbZZfHb3/42nnrqqTjvvPPi4IMP3maad77znTF+/Pj44Ac/uPNnnF5lAJh+72//9m/j6KOPjilTpsTmzZvjtttui9bW1rj++ut7e9YAqCP9AIAI/QCAGv0AgBeLs88+O2bOnBkzZ86Mq666KmbNmhWXXnppp2luvvnm+M53vhPXXXddrFu3Lo488shYtGhRDBs2rGOaG2+8Mf77v/873v72t9f7KdALDADT7+23336xYMGCuOGGG+Lhhx+O008/PU4++eTYbbfdenvWAKgj/QCACP0AgBr9AIBttEbut67++DEKrFixIq655pr44he/GBERM2bMiHe+853xoQ99KEaMeO5a4nPnzo03velNERExYsSImDx5csyfP79jsHfVqlXxwx/+MF73utd18wnQVxgAhogYOnRovPnNb+74++GHH47/+q//ire97W29OFcA1Jt+AECEfgBAjX4AQG9bsGBBjB07NgYPHhwREePGjYvGxsZYvHhxHHfccRER0draGgsXLowLLrigI7fvvvvGwoULOwaAL7nkkpg9e3af+R17us8AMP3e1772tfjYxz4WGzZsiPb29oio/a5LS0uLHXqAfkQ/ACBCPwCgRj8AYBs9eAbw2rVrO93d2Ni43d/1Xb58eYwePbrTfcOHD48VK1Z0/L1q1arYtGlTp+mGDx8ed955Z0REfOMb34gTTzwxRo0a1c2Zpy8xAEy/d8UVV8TFF18cv/jFL+LVr351DB8+PBYsWBBHHXVUb88aAHWkHwAQoR8AUKMfALAzTZw4sdPfH/jAB+KDH/zgNtM1NDR0nP37rJaWlhg4cGCnaSKi03TPTrNixYq47777Oi4PTf9hAJh+7/Wvf3288Y1vjNe97nVxzTXXxN/93d/Fq1/96jj++OPj+OOP7+3ZA6BO9AMAIvQDAGr0AwB2pqVLl0ZTU1PH39s7+zciorm5OdasWdPpvvXr10dzc3PH32PGjInGxsZO061bty6am5vjiiuuiEsvvTQ+/elPd2R32WWX+OUvfxnXX399Dz4jXmx26e0ZgN527733xtvf/vZ4/PHH46mnnooPfehD8Q//8A/x61//urdnDYA60g8AiNAPAKjRDwDYRlsP3SKiqamp0+35BoCnT58ey5Yti5aWloiIjks/H3744R3TNDQ0xPTp0+P+++/vuO+BBx6I6dOnx/nnnx+//vWv44477og77rgjTj311HjnO98Zl19+ec+8JrxoGQCm3/vMZz4ThxxySIwYMSLe8573RFtbWzzyyCNx1VVX9fasAVBH+gEAEfoBADX6AQAvBhMmTIgTTzwxFi5cGBERN910U5xzzjnR2NgYs2fPjkcffTQiIs4999y48cYbI6L2+8LLly+P008/PZqammKvvfbquA0dOjSamppi3LhxvfacqA+XgKbfGzZsWJx77rkREXHbbbfFhRdeGEOGDOnluQKg3vQDACL0AwBq9AMAttH6zK27j1Fo3rx5ceGFF8aiRYti1apVcckll8SmTZti/vz5ceqpp8aECRPilFNOibvuuisuuuiiWLVqVcyfP3+b3w6mfzEADH/g9a9/fdxxxx2x77779vasANCL9AMAIvQDAGr0AwB609ixY7d7yeYlS5Z0+vvCCy/c4WP9x3/8R0/NFi9yLgENf6C9vb23ZwGAFwH9AIAI/QCAGv0AAOhrnAEMfd3AiGgomH5MeYkR5ZFUnVShTCZz5YtRiUy8tDwybnFxZFR5lYjm0sDeiSJ7lEdGPlieKX4uETExkRmYyIwqj6S+mTUskRk7qDwzrqU4kllFGwoWnYa2iHg8UaSCBkbZYnpYokbTyEQoI7NMH1QembI6kVlZnok4uDxywK3FkVeVVynfhE5OFJlaHmnavzxz0oDyTByVyLy2PHLM58szZ5dHYr9EJvZJZBLLwYwlO57mj00rnH5TRPyovEz1DI2y44PEvlRmVyoVqlffyfz8Web57DY6UWdVcSSze1y+rX55okjimGL8t4ojQ/YqL5PaFg5NZBJvzugViTqZZXpS4khkYlt5pLxK+fK5NSKWZgpVz5AoXFQTb9BLf1aeSa1ziU1o5mOJzGswJnVM+sryyMTEBiHxWu+2ujCw6yvKi+xzZ3nm6fJIHJjIlO6ERuTmLdFH9kyUSa0HiWO4WFefMmPGvvBpB7ZFRPmuVNd66RLQkOEMYPgDN910U0yaNKm3ZwOAXqYfABChHwBQox8AAH2NM4AhIq6++ur43ve+F6tWrYr99tsvzj333HjpSxNnbwLQp+kHAEToBwDU6AcAdNIeEeUXwNj2MaAOnAFMv3f++efHO97xjhg9enScdtppMX78+Hj7298eixeXX4oXgL5LPwAgQj8AoEY/AAD6MmcA0+9deeWV8Y1vfCNOOumkjvve+973xuzZs+Pwww/vxTkDoJ70AwAi9AMAavQDAKAvMwBMv3fiiSfG5MmTO903YMCAWL16de/MEAC9Qj8AIEI/AKBGPwBgG63P3Lr7GFAHBoDpdz760Y9Ga+tzW9mpU6fG+eefH695zWs67nv66afjwQcf7I3ZA6BO9AMAIvQDAGr0AwCgSgwA0+/cfffdsXz58pg8eXLsskvtZ7AnTpwYS5Ys6TTdnDlzemP2AKgT/QCACP0AgBr9AACoEgPA9Dsf+MAHoqmpKcaPH/+807S1tcX69evrOFcA1Jt+AECEfgBAjX4AwA61PXPr7mNAHRgApt/Zd999O/196623bjPN73//+7jjjjviIx/5SL1mC4A60w8AiNAPAKjRDwCAKjEATL/3+te/PiZMmNDpvrVr18ZLXvISO/QA/Yh+AECEfgBAjX4AwDZan7l19zGgDgwA0+9de+21ccopp3S674YbboghQ4b00hwB0Bv0AwAi9AMAavQDAKAvMwBMv/fHO/MREccdd1wceOCB8bvf/a4X5giA3qAfABChHwBQox8AAH2ZAWD6vTPPPLPT362trfGrX/0qRowY0UtzVGhSRAwomH5qeYmGleWZOKBOmbsTmWmJzOhEJk4oj7x8cXFk0OTyMuXLwcmJIuvLI/tcU57ZUh6JfYeWZ8Y9XZ55aXlk6g/KM3FQIpN5Tw/8VnFkYnmVsuezNSJ+mCmyrb7eD4ZMjBiyS8H0gxNFXp7IDEtkJiWa1dEPlmdK+uezEmUiTi2PHLbtb87tSGZT0LBXYSCz/cxsbw5N9IPm8kgcnMhML48MS6w7b7yrPLPnyPJMNMwsz+xd3g8OXlJepnTXMNGpt6uv94N4SZRt3/YrLzG+sTwTByYyBycymWOXRNvJvG4Rp5VH9r2+ODJkr1XldYpfg8Rzybxo+5Vvb2JpeST23j0RGlUemXpfcWTiz8rLxCGJTKZfH3RDcWRceZWIwwqn3xwR/5sp1Fmf7wcRMWRQxJCGgkBiXyJzWBGZl3B8IjMmkcnMW+aYJ/Ph1OjydS71fDaVBhIfTI27szyT+Wwus4Bm9qkz85ZYbjK7YKkNbyaTeK0HJcoUrdetEZHYLdrhY7oENH2EAWD6vXvvvTeOP/74aGio7RHvsssu8epXvzr+8i//spfnDIB60g8AiNAPAKjRDwCAvswAMP3e5ZdfHvvvv39vzwYAvUw/ACBCPwCgRj8AYBttz9y6+xhQBwUXCoRqenZnvq2tLT796U/Hu971rvjud7/by3MFQL3pBwBE6AcA1OgHAEBfZgCYfmnAgAExceLEmDNnTvzud7+LiIhTTz013vOe98R9990Xs2bNinnz5vXyXAKws+kHAEToBwDU6AcAQFW4BDT90qhRo2Lx4sUxYcKEiKhd1ue73/1ufOpTn4rzzz8/Wltb4/TTT493vvOdvTynAOxM+gEAEfoBADX6AQBdan3m1t3HgDpwBjD90kknndSxM79mzZqYPXt2HHnkkXH++edHRO0bn+PGjevNWQSgDvQDACL0AwBq9AMAoCqcAUy/tHHjxo5/v+td74rVq1fH5z//+Y772tvb4yc/+UlvzBoAdaQfABChHwBQox8A0KW26P4ZvG09MSOwYwaA6ZdmzJgRr3rVq6KxsTF+9KMfxaWXXhoHH3xwREQ8/vjj8b73vS/uuuuu3p1JAHY6/QCACP0AgBr9AACoCgPA9Etve9vb4oADDojbbrstPvKRj8RrXvOaiIj43e9+Fz/84Q/jla98Zbzyla/s5bkEYGfTDwCI0A8AqNEPAICqMABMv3XkkUfGkUce2em+vffeO/bee+9emiMAeoN+AECEfgBAjX4AwPNqi+5fwtkloKmTXXp7BgAAAAAAAADoGQaAAQAAAAAAACrCJaDhebS2tsaAAQN6ezZ63qbyyNoHyjNNy8szsevoRGhVeWRposzqRCbGlEe2lEfaHy7PNDSXJhLPJbaWRxLLZ9ydyKQKJTxdHvlFosyJieWmXn6ayPxNyTLdmihQqM/0g0cjouGFT/7rxHKz6d7yTOYtOmLeg+Whb5VHNn67PPN4eSQmxcLyUCJybXkkBi4rm/7PfpfYsA29pjyTeD9/nZi1Aw8pz8TK8sjP7yrP/F15JP51TXnm+PbEi53ovf+vPBIHFU6/s9thn+kHQ6LsSH9YeYmnNpdndsu8QeMSmUzjyewaJrY5EZMTmb3KI6sTx0jF24/MpXAzzz8hsZ2OGJXI7FkeGXBfcWRFeZWIEZnQlPLI0PLIQ+WRiNJtTmIbVaLP9IOI2ja+4Bgh0xMSe+6x9+pEaFLiPKahieusJrbv7YkVtaF4TyciBpVHYl0iU/x8Xl5eY+gN5ZnB5ZHURjRTJ7NJSGxDEx/RptbrVB9JvAapj/RWF0y7My613Brd/yyqDp9lQYQBYIiIiI0bN8aTTz4ZbW21rtDe3h5f/epX433ve18vzxkA9aQfABChHwBQox8AAH2VAWD6vVmzZsUnPvGJaG3t/NWbhoYGO/QA/Yh+AECEfgBAjX4AwDbaovtnFu+MM5NhO/wGMP3evHnz4sc//nFs2bIl2traOm7/8R//0duzBkAd6QcAROgHANToBwBAX2YAmH7vbW97W+y+++7b/H7LMccc00tzBEBv0A8AiNAPAKjRDwCAvswloOn3mpqa4swzz4zXvOY1Hfe1t7fHggUL4pZbbunFOQOgnvQDACL0AwBq9AMAttH6zK27jwF1YACYfu/OO++M4cOHx4MPPhgNDQ0REdHW1hYrVqzo5TkDoJ70AwAi9AMAavQDAKAvMwBMv3fxxRfHy172sm0u6XPPPff00hwB0Bv0AwAi9AMAavQDALbhDGD6EL8BTL+zadOmTn+/4hWv2GZnPiLipz/9ab1mCYBeoB8AEKEfAFCjHwAAVWIAmH5n//33jyuvvLLj70mTJsWAAQM63XbZZZc444wzenEuAdjZ9AMAIvQDAGr0AwCgSlwCmn7nlltuiebm5o6/zz///Dj88MNj4sSJnX7T5atf/WpvzSIAdaAfABChHwBQox8AsENtz9y6+xhQBwaA6XemTJnS6e/zzjsvBg4cuM10s2fPrtMcAdAb9AMAIvQDAGr0AwCgSgwA0+9tb2c+Irb7Oy+VMKI88nSiTFPqm0xjyyMjVpVnWsojsWnHk2wr8XyGlUcyszZkcGliVKLK8EQmYfur8A6ML4/str48M3BtcWRdeZWI1kxor0yoWGpTsGFnF9i+Pt8PpkVEwaweWL54RoxLZDIv35DTyzMzrykvk9h+THqsPBPxL+WRN95QHDnt7PIyg0YWBvZ+TXmReFV55LS5xZEDM/39pETmjeWRV/6/8sw/LinPHJ/5gZ+Gj5RnXntRcWTm/PIyhxZOvzEivldeZht9vh+sibJtb0nffcai8kic+FAi9GQik3mb7k1kUn6XyDxUnkjstk5ZWprIPJeE4vmKaHmgPDMolpWHMh+prS6PZH5t9h0PJ0KxsjySqJOatdIXYWumyLb6fD+IqH3+0bBzS6yuW6hOEsdJmeP4psxnJpnPPzL7yMX7lImVbmxix3VD4gOAzIdmmdd5dCKT+MA1s2uU2dfLfH6cWRFSH2eV1GnPFNiBtkjO+B89BtSB3wAGAAAAAAAAqAgDwAAAAAAAAAAV4RLQ8EcWLFgQ7e3tMX369N6eFQB6kX4AQIR+AECNfgBAtEb3T6vs7iWk4QVyBjD93sSJE+P9739/PPHEE/GBD3wgTjnllPi3f/u3+NCHPtTbswZAHekHAEToBwDU6AcAQF9mAJh+77TTTosPf/jDsX79+rjkkkviy1/+clxzzTUxfPjw3p41AOpIPwAgQj8AoEY/AAD6MgPA9HuTJk2K9vb2eO973xvHHHNMnH766RERcdttt/XynAFQT/oBABH6AQA1+gEA22jroRvUgd8Apt971ateFccff3y0tbXFVVddFQ8//HB84hOfiDvuuKO3Zw2AOtIPAIjQDwCo0Q8AgL7MADD93ubNm+NLX/pSTJo0qeO+z33uc/G5z32uF+cKgHrTDwCI0A8AqNEPANhGa3T/urqtPTEjsGMuAU2/9xd/8Rfxk5/8ZJv7W1ttiQH6E/0AgAj9AIAa/QAA6MsMANPvXXnlldHY2Njpvvb29pg7d24vzREAvUE/ACBCPwCgRj8AAPoyl4Cm3zv33HNj2bJlne5rb2+PhoaGuPDCC3tprgCoN/0AgAj9AIAa/QCAbbQ9c+vuY0AdGACm3zvvvPPisMMOi8mTJ0dDQ0NE1HboL7/88l6eMwDqST8AIEI/AKBGPwAA+jIDwPR7f//3fx/Lly+PlStXxhFHHBF33XVXTJkyJT7wgQ/09qy9MLtH2Zo8qrzEhvJIxMBM6KDyyPj7yjODyiM5k8sjI3p+Lrar+CeL9koU2VoeGZYosy6RyawIMb48MuIXiToJEzOhxPI5qjzSUh4p23704Lcm+3w/mBplr93SRI1RiczgRCaOK49MuaY8s2d5JOfg8sjY0cWRQaNXldcpfn9eVl4j9i6P7JEosyKRyfTdpt3LM+N/XxwZtaS8TOyXyMQR5ZHm8khTeaS486b2Wbejz/eDKVHWD/YpL5GIRByQyEyYmgitLo/sl9h+pta3ExKZ9cWJKY3fKi9TvD/52vIa8crySGJhG5TYRkW8KpFJbD+n3l0cmVZeJeLQTOjk8sjLy/e/MkeWxR8VtETETzOFOuvz/SAiYmyU/QBgYt8osQWN2JIJvbw8MubOTKFimY8lmjLH5EMThRLHzBs3l00/JLXzPrY8MqB8nzpWlkdiQCJTfviW+Gwu4ulEmczHWTE8sbCNKJ+71eVVel9rdP+HVf2UPHXiN4Dp966++urYb7/94l/+5V8iImKfffaJf/qnf4qf/rQHjhYA6DP0AwAi9AMAavQDAKAvMwBMv/fFL34xFi1aFK973esiIqKxsTHe/OY3x9vf/vZenjMA6kk/ACBCPwCgRj8AAPoyA8D0ezNmzIhDDjkkdt31ueso33rrrfHkk0/24lwBUG/6AQAR+gEANfoBANto7aEb1IHfAKbfGz16dFx99dXx+OOPx6JFi+Laa6+NT3/60/HP//zPvT1rANSRfgBAhH4AQI1+AAD0Zc4Apt9717veFRERixcvjjPOOCN+8YtfxBe+8IX48Ic/3MtzBkA96QcAROgHANToBwBsoz0i2rp5a6/7XNNPOQMYIuItb3lLvOUtb+n4u62tLX75y1/GoYce2otzBUC96QcAROgHANToBwBAX2UAmH7n7LPPjs2bN3c5zeOPPx677rprfOtb36rTXAFQb/oBABH6AQA1+gEAUCUGgOl3dtlll9i8eXO89KUvjV122SW+/e1vR3Nzcxx22GEd07S1tUVDQ0MvziUAO5t+AECEfgBAjX4AwA61RkR320BrT8wI7JgBYPqdiy66KAYOHBhjx46NiIj169fH3Llzt5nuL/7iL+o9awDUkX4AQIR+AECNfgAAVIkBYPqdCRMmdPp769at20xz9913xy233FKvWQKgF+gHAEToBwDU6AcA7JAzgOlDDADT7x122GExffr0OPHEE2P48OFxzz33xFe+8pU444wzenvWAKgj/QCACP0AgBr9AADoywwA0++95S1viQMOOCA++clPxp133hlNTU3xL//yL/Gud72rt2cNgDrSDwCI0A8AqNEPAIC+zAAw/d7FF18cr3/96+OrX/1qb89KzoBnbi/U4PISe48uz8TkRCY2lUdKnvuzMvM2IpGJ4eWRht2LI0P2+n15nX1KA6PKa2SMS2QOzBTKLARryiOJ5eaA8kjE0ExoVHkksS1IPZ9pBdNuiYiHM0W21ef7wfoo27Mbk6ixXyIzLJGJleWRzHZ6r0SmJZGJ9ZlQuZGJzJ6lgUSvzmxvEpGYmMhMTWRibHlkXHmvfm15leT6Vp/lM/NSjy+cvqeeSZ/vB4MiYmDB9CXTPmPvPcozMSWRSUksCcX7xslMZvuRyWT2j4t32oobSKQ27s2JMoclMqkFNPGR2qjyyKHlkeThW+LDgrGDiiMHZnamDiqcfmN5ie3p8/0gImJdROxSOH2hzGF8ZnGL+G15ZHWiTPlinfvIKO4tjzydKJPo80MaSxPLy4vEE+WRLYkymQU0UyfxkVHm/cx8RJtaD9YnZi5RJ7X9KNmmtWcK7EDbM7fuPgbUQcnqApV09dVXx4AB244i/v73iUE1APos/QCACP0AgBr9AADoy5wBTL930UUXxbXXXhstLS3R0FD7BffW1ta4/PLL4+qrr+7luQOgXvQDACL0AwBq9AMAoC8zAEy/N2/evLjvvvvim9/8ZscOfUTEypWJy08C0GfpBwBE6AcA1OgHAGyjNSIadjjVjh8D6sAAMP3eP/3TP8Wxxx4bu+22W6f7/+u//quX5giA3qAfABChHwBQox8AAH2ZAWD6tS1btsTgwYPjiiuuiF133TVe/vKXx7HHHhu77LJL/Pmf/3lvzx4AdaIfABChHwBQox8AsF1tz9y6+xhQBwaA6bduvfXWeOtb3xrLli3rdP/UqVPj6quvjle96lW9NGcA1JN+AECEfgBAjX4AAFTBLr09A9AbfvnLX8ZZZ50Vs2fPjvvuuy82btwYLS0t8cgjj8TFF18cZ511Vtx11129PZsA7GT6AQAR+gEANfoBAFAVzgCmX/rkJz8ZN910U0yaNKnT/XvttVf89V//dbz+9a+P2bNnx5e+9KVemkMA6kE/ACBCPwCgRj8AoEutEdHQA48BdeAMYPql4cOHb7Mz/4fGjx8fo0ePruMcAdAb9AMAIvQDAGr0AwCgKpwBTL80ZMiQHU6zefPmOswJAL1JPwAgQj8AoEY/AKBLbdH9M3jbemJGYMecAUy/tHbt2li2bNnz/v9DDz0Ujz/+eB3nCIDeoB8AEKEfAFCjHwAAVWEAmH7pvPPOi+OOOy4uv/zyePjhh2Pr1q2xZcuWeOCBB+Jzn/tc/Omf/mm8+93v7u3ZBGAn0w8AiNAPAKjRDwCAqnAJaPqlgw46KL74xS/GX/3VX8U73vGOTv83fvz4+NKXvhSHH354L81doYFRtiYPTNTYL5HZM5GJTZlQuYmJTN1+4md4eWTq78szo0oDmXbx/N+afl6Z17k5kUlZWR4ZVR7ZpzwSMSIT2loe2bX8DZoSq8rrTC6YtqX84f9QpfrB/VH01b4ND5eXaP1eIlMeid0+clV5KBGJ/0pkVicyX/hkeebm8nXnt0vKy0RhZlpcmSjyzfLIt8ojG35Vnhn2pvJMvPXu4sjab5eX+bvySHzmZ+WZ8fHx8lDitc6sbg8VTt+dPclK9YP1UbbrlmjVqW1h6oS5xP7kU4mdg9XlkdTrFr9NZO4tj6xOlCl+f36TKJJYSzOvc2pZS7zOsb488mR5ZEN5JFUntXw+Ub6+rSuvEvFE4fTdaAiV6gcREftGWU84qrzEwb8uz8QpiUycUB456obyTOJ0qaap5ZmIN5dHjv6/dSkTD5YGzkoU+VF55PQ7yjNLE/sFf5o5Zy5xTd/EB0DveE95JrPqxPDExmD/8sgb4/by0NkF026OiM+Wl+hSW0Q09MBjQB0YAKbfeu1rXxsPPPBA3HTTTXHPPfdERMT+++8fxx9/fDQ2Nvby3AFQL/oBABH6AQA1+gEAUAUGgOnXBg0aFKecckqcckrqq4cAVIR+AECEfgBAjX4AwHZlLnO2Mx4DXgC/AQwAAAAAAAAvQhs2bIhzzjknZs2aFeedd15s3rx5u9Nddtll8Z73vCfOPPPMuOOOOzruX7lyZRx33HExfPjwmDFjRqxalfo9E/oYA8AAAAAAAADwInT22WfH8ccfH3PmzInDDjssZs2atc00N998c3znO9+JT37yk/GZz3wm3vrWt8aGDRsiIuKqq66KL33pS/HTn/407rnnnrj00kvr/RToBQaAAQAAAAAAoCutPXQrsGLFirjmmmtixowZERExY8aMmDdvXqxbt67TdHPnzo1TTz01IiJGjBgRkydPjvnz50dExN///d/H5MmTY//99483velNMWDAgOKnTt9jAJh+b/bs2fHxj388nnjiibj99ttjypQpMXny5Lj55pt7e9YAqCP9AIAI/QCAGv0AgJ1p7dq1nW7Pd1nnBQsWxNixY2Pw4MERETFu3LhobGyMxYsXd0zT2toaCxcujMmTJ3fct++++8bChQsjImLIkCEd969fvz7OO++8nfGUeJExAEy/d+utt8a5554bTU1N8Zd/+Zdx7LHHxm9+85tYsGBBb88aAHWkHwAQoR8AUKMfALAzTZw4MUaOHNlxmzNnznanW758eYwePbrTfcOHD48VK1Z0/L1q1arYtGlTp+n+eJoHH3wwzjrrrPjJT34STz75ZA8/G16Mdu3tGYDe9oY3vCGGDRsWn/nMZ2Lz5s3x2c9+NoYPHx5bt27t7VkDoI70AwAi9AMAavQDALbRFhENPfAYEbF06dJoamrquLuxsXG7kzc0NHSc/fuslpaWGDhwYKdpIqLTdH88zbhx4+INb3hDLF68OGbOnBm/+c1vuvlEeLFzBjD9Xnt7e5x77rlx0UUXxec///kYOnRofPOb34x/+7d/6+1ZA6CO9AMAIvQDAGr0AwB2pqampk635xsAbm5ujjVr1nS6b/369dHc3Nzx95gxY6KxsbHTdOvWres0zYgRI+KEE06I6667Lu6+++54/PHHe/gZ8WLjDGD6vXe/+91x9913xwUXXBBTpkyJFStWxNixY+Pb3/52b88aAHWkHwAQoR8AUKMfALCN1vo/xvTp0+Oss86KlpaWGDRoUMdlnQ8//PCOaRoaGmL69Olx//33xxFHHBEREQ888ED81V/91TaPN2XKlNhzzz23uaw01eMMYPq9z372s3HAAQfElClTIqL2jZoJEybEkiVLenfGAKgr/QCACP0AgBr9AIAXgwkTJsSJJ54YCxcujIiIm266Kc4555xobGyM2bNnx6OPPhoREeeee27ceOONERGxdu3aWL58eZx++ukREbFo0aLYsmVLx7/f8pa3xIABA3rh2VBPzgCm3/rGN74RmzZtiu9///sxatSoTv+3atWquOSSS+Jv//Zve2XeAKgf/QCACP0AgBr9AIAXm3nz5sWFF14YixYt6uhFmzZtivnz58epp54aEyZMiFNOOSXuuuuuuOiii2LVqlUxf/78GDx4cLS0tMSZZ54ZLS0tcdJJJ8XEiRPjYx/7WG8/JerAADD91vTp0+Ov//qv4+67747169d3+r9Bgwb1mY3g4z+M2FQw/e6/Kq9x3WPlmT/7WXkmpn6/PHNteWTDVeWZgeWRGPSOQ8pD/14e+f6t5ZmjCzNDPjGmvEis3/Ekf+z95ZH2W8ozDRO/Vx7aUh6JOeWRTyXKfP3CRGjvd5Zn/rM8klikY595L3zaxFK2jar0g3gsIhpe+OTD9kjUOCiRGZHIrH+wPLNXos5Ricz9iUz8vDyS2OaMK4/EmOGFgUfayotMGlWeaV5bHBl2ZHmZmJbINO94kj/WlFg+P7esPLN76vpOD5RHlpdHDi2PFL89Tydq/KGq9IOWBREtBdMPSiw3120uz/zZF8oz0VjyTJ6RWBDWJq7m2jSyPBPn/UN5JnH89pPEan1QYWbI+jeWFxk+qDxzZXnkkV+WZyZdd3t5KLOP843ySOLIJf5P5qCi+YPlmcSx9cLySJxfelzVnijyB6rSDyIilv6kbFGdtLq8xo13lWeOSXyOMWzqDeWhq8sjkfho6teJA9MDr0w0kg+WR9Ym1tNVhdNP+fz+5UX+pzwSt5VHWj9fnhmwMnHMk+i9mUsJ/2uizKcynxltSfTFxM/JfrE8EhPnvvBp1yUef4faouizl+d9jEJjx46Nyy+/fJv7//iqFBdeuO0bPmjQoPjNb35TXpQ+zwAw/da4cePi+uuvjxtuuCHe8IY3bPP/ra09cUF/AF7s9AMAIvQDAGr0AwCgCgwA068NGjQo3vCGN8TGjRvjySefjLa22tdv2tvb46tf/Wq8733v6+U5BKAe9AMAIvQDAGr0AwC2K3H27k55DHgBDADT782aNSs+8YlPbPMNzoaGBjv0AP2IfgBAhH4AQI1+AAD0ZalfiYIqmTdvXvz4xz+OLVu2RFtbW8ftP/7jP3p71gCoI/0AgAj9AIAa/QAA6MucAUy/97a3vS123333GDBgQKf7jznmmF6aIwB6g34AQIR+AECNfgDANlojor2bj+ES0NSJAWD6vaampjjzzDPjNa95Tcd97e3tsWDBgrjlllt6cc4AqCf9AIAI/QCAGv0AAOjLDADT7915550xfPjwePDBB6OhoSEiItra2mLFihW9PGcA1JN+AECEfgBAjX4AwDZ64uxdZwBTJwaA6fcuvvjieNnLXrbNJX3uueeeXpojAHqDfgBAhH4AQI1+AAD0Zbv09gxAvW3atKnT3694xSu22ZmPiPjpT39ar1kCoBfoBwBE6AcA1OgHAECVGACm39l///3jyiuv7Ph70qRJMWDAgE63XXbZJc4444xenEsAdjb9AIAI/QCAGv0AgB1q7aEb1IFLQNPv3HLLLdHc3Nzx9/nnnx+HH354TJw4sdNvunz1q1/trVkEoA70AwAi9AMAavQDAKBKDADT70yZMqXT3+edd14MHDhwm+lmz55dpzkCoDfoBwBE6AcA1OgHAECVGACm3xs4cGB885vfjC9+8YuxbNmy2G+//eLss8+O448/vrdn7QUZt2tEU0NBYJ/yGn+2qjwT0xOZ5h1Pso3J5ZFhhyfqNGUyryjPHHpnceTY8iox4MjSxMmJKqvLI4feUBxpGFVeJg5LZFYkMoeWR064KVHngETm4MSvQNzfVhzJLJ8H7vXCp13bFrn3Zjv6ej+IARFR0g+GJmqMSWQydbb9qbUdG5bIjKhTJsbWpU5q1krf01SR8eWRoY/UpUyMTmRGJTKJ5TP1Um/7GfULkFg+h/2+OJLZfIwsnL6nDm77ej8YNCRiUEk/SKw7mf4eByUy4xKZxLFL00sSdaYkMpMSTXHd08WRV5VXiYbS92f4vokqe5dHpn2vODJpXXmZ2C+RGZzIJI5fX5U5Hp+YyCTensxxSOZQLI4unH5rRPwwU6izvt4PImq9tOjjjMQyeuxd5ZlB9eoJmXUhcRx/YOI1iDi4PDL11uJI00vLyzSVbkd3m1ReZGJifz+x3Ax4XXkm9RlLebtOHVcc9e1EncR6ncok1tHMPsvee7zwade2RcTjiSJdaY2I9m4+RvnHa5DiN4Dp9+bOnRvnnHNOTJs2Lc4666x4zWteE1/+8pfj8ssv7+1ZA6CO9AMAIvQDAGr0AwCgL3MGMP3ewoUL46GHHoohQ4Z0uv+iiy7q0RpXXXVV7LnnnvHkk0/GJz7xiRgyZEg89thj8f73vz9GjRoVAwcOjI985CMdvysDQH3pBwBE6AcA1NSjHzxbR08A6CN64uxdZwBTJ84Apt975Stfuc3OfETEAw880COP/+STT8YZZ5wRn/vc5+Jf/uVfYt99941Zs2ZFRMTpp58eZ599dnz84x+PxsbG+NznPtcjNQEopx8AEKEfAFCzs/tBhJ4AAOw8BoAhIq644oq4++6741e/+lV8/etfjxNOOCEGD878oM+2vvWtb8WYMWNi6NDa7z39n//zf+ILX/hC/OhHP4qHHnooDjnkkIiImDFjRsydOzfa27v7IwIAZOkHAEToBwDU7Mx+EKEnAAA7jwFg+r2LLrooHnjggTj66KPjkEMOiTPPPDOmTZsWX/jCF3rk8deuXRvLly/v+HvixInR0tISCxYsiMmTJ3fcv++++8ayZcviwQcf7JG6AJTRDwCI0A8AqNnZ/SBCTwDoc9oiorWbN5eApk4MANMvPf744x3/HjhwYMyZMyeeeOKJePTRR2PdunXxmc98ZruX+ck47rjj4rHHHouvfe1rERGxePHiiIi47bbbYvTo0R3TDR8+PCIiVqxYsd3H2bx5c6xdu7bTDYDu0Q8AiNAPAKipZz+I0BMAgJ3HADD90hVXXBFbt26Ntra2jltExB577BG77NKzq8VBBx0U8+fPj89//vPxzne+M772ta/FrrvuGnvvvXenywa1tLRERO0AY3vmzJkTI0eO7LhNnDixR+cToD/SDwCI0A8AqKlnP4jQEwD6nLYeukEdGACmX5o9e3Y0NjbGwIEDO90GDBgQo0ePjtNPPz0effTRHqv3pje9Kf73f/835s2bF4899licdNJJ0dzcHGvWrOmYZt26dRER0dzcvN3HmDVrVqxZs6bjtnTp0h6bP4D+Sj8AIEI/AKCm3v0gQk8AAHaOXXt7BqA3vOlNb4qzzjorBgwYsN3/b21tjc985jNxySWX9Gjdu+66K7773e/G4sWLY926dXHFFVd0/N8DDzwQU6dOjUmTJm0329jYGI2NjT06PwD9nX4AQIR+AEBNb/WDCD0BAOhZBoDply6++OI44IADnvf/P/rRj8aXvvSlHt2hX716dbztbW+Lq666qqP2brvtFvfff3/ss88+cdNNN8W73/3uHqsHwI7pBwBE6AcA1PRGP4jQEwD6jNaIaOjmY7T3xIzAjhkApl/qamc+ImLIkCExZ86cHqm1cuXK+MEPfhA///nPY968eXHIIYd0/N/Xv/71+NjHPtbxDc5zzjmnR2oC8MLoBwBE6AcA1NSzH0ToCQDAzmMAGLajJ79VOX78+Hjr/2/vvsOsqO7/gX8WhEV6VUCKFaNiL2CavSXGxB6NXaMRY4ktIEaNJuLXFmssiV3DL5pmLDF21FhQE2NBBQWVoggiXdru/P5QblxgF84BFrn7ej3PfZS7854zM3fmnJk598w95JA45JBDFvrbOuusU+ORPgB8tWgPAIjQHgDwuWU9ClebALCSMQKYlYgOYFjZrR0Ri/5pmkXbKqOMHTIydX9pdtG611M5HTIyPTMycUB6ZKfXkyONj6hOL6dPauBH6WXExPTIbvelZ5qkR2KDLdIznf6dntk5PXLUE+mZ2DEjE4enR/a4JTlyfHopET9LmHZWRAzMKaQMrRNp7cE3M8rIqNaiU0Zm1a+nZ/Z4Nj2zfnokhmVkcurQb/w5OdJ056np5aSeF7TbJr2MOCc9stue6Zkj0yOxStOM0PfTI3vfkxxZdVZ6MfF+RiaOTY9sdUpyZL+X0ovp3D5t+qlFRHyaXk7Z6RIRjRKmz6gLW++bnondMjJrZmRS2sL5cpbtaxmZyNhwG6W3BxX7zkwvJ3l9vpteRmyZHtn2H+mZnGvEDRb9u6p1y7iltunI5MgB/0kvJrbOyDTNuPD/ZvrFyz7ppaS38TMj4vGcgspP6/YRrVPahL7pZTRdIz0TvTMy62Rkcu6B5VwjJN9jiYjYKz3yzafSM3PTIzEjNZBxvbNFxkj6tdMj0Tkjk3HLKDJuzeXsa/tfmVHOdhmZnHYk4/7cYRnFJF2+zI6Ii3MKgfKQcgoAAAAAAAAAwFeYEcAAAAAAAABQl+rwCGhWGkYAAwAAAAAAAJQJHcAAAAAAAAAAZcIjoAEAAAAAAKAuVeER0Kw0jAAGAAAAAAAAKBNGAAMAAAAAAEBdjABmJWIEMAAAAAAAAECZ0AEMAAAAAAAAUCY8AhoAAAAAAADqUoRHOLPSMAIYAAAAAAAAoEwYAQwAAAAAAAB1qPritbTzgPqgAxhWdhMjbSz/v9OLePqp9My3NkjPxG4ZmXEZmUEZmcYZmR8MSc88Up0cGX5rejG97k8M/OTe9EJiXnrkLxnF3J2ReSbjQMjx9/TIT+emZ655LT0TkfGZ/jM98uP0SPzhtCWf1knzl0yJtPYg57AelpFplZG59630zD8yynk2IzMyI3PiH9Mz/5qaHPns0fRiVk3dBgOGphfS+tT0TGo7FRGRsf7RZ056Zud70jMZu8C7o9Iz63RMz0Tcnh55PT1yc3okNp6UNv3MjDLK0iqRdu46K72If/05PfONZumZ+GZGZs2MzF8zMmtnZE5+Oz3zWfqe/UnG59Oha2LgV2PSC8nxUnrks4xqbdUTPkgPtWuennk/PXJReiR+mXFcR3ySHsnYpS9Nj8Tvb0kMZFyKlqvPJkU0SZh+1UfSy7gj457RnumRaPetjNAzGZk/pEf+NT09842LM24YZERmXJWeeS9x+o1+c2V6IS+kR3KuET66LD3T+dfpmRidkXk8PXJUxr52c0Y5sV1GJuMe7WEZxVx9wZJPOy1j/lBOPAIaAAAAAAAAoEwYAQwAAAAAAAB18AhoViZGAAMAAAAAAACUCSOAAQAAAAAAoA7VX7yWdh5QH4wABgAAAAAAACgTOoABAAAAAAAAyoRHQAMAAAAAAEAdqr54Le08oD4YAQwAAAAAAABQJowABgAAAAAAgDpUf/Fa2nlAfTACGAAAAAAAAKBM6AAGAAAAAAAAKBMeAQ0AAAAAAAB1qPritbTzgPqgAxgamlbpkfY55bTNyLTIyDTPyGRsg2iWkYmvpUc6PZIcyVq0tqmBjTIKmZ4e6ZBRTPeMTKeMzMyMTJuMTI65OaFu6ZG2k5IjjdNLicZNEqYtImJeRiHlaGJEVCz55FMz9ukWY9IzORrH5PTQsIyCnsnITMjI5Jxypx9u8XZ6JFol7gfrZJQR8VF6ZERGMeMzMjnnEWunRz4dlZ65Jj0Sx01Mz3wt53iblh55Lj2SXMzsjDLK0vRIe9ZXxnlEzuGWU6/FrIzMnIxMzrK1zcjkyPh8Mmrd6DA1I1QfZqRHck7bV826E5uxg2asz3vpkYhxOaGMk+qM9iBr0UYnTu/Oesmqq0SsmnCNkHN9vWZ6JNrl3GjqmZHJuV+wZnpkndczyonvpEfWfio50iJjW6+Z3C5+N72Q9e5Jz2yYHum8enom1s/I5Pyoa0ZdlXWPNudeW8Y1T8791pzbZilVwVf19Abqi0dAAwAAAAAAAJQJI4ABAAAAAACgDtWx9A+ayBkwDjmMAAYAAAAAAAAoE0YAAwAAAAAAQB2qY+lH8BoBTH0xAhgAAAAAAACgTOgABgAAAAAAACgTHgENAAAAAAAAdaj64rW084D6YAQwAAAAAAAAQJkwAhgAAAAAAADqYAQwKxMjgAEAAAAAAADKhA5gAAAAAAAAgDLhEdAAAAAAAABQh+ovXks7D6gPOoBhZdcr0o7k9dKL6JAeiVg7I9N07/TMZn9Nz6yZHolmGZk4OD2y2bXJkc45pw3dUwOHp5cRs9Ij6/ZPz3RNj0THTTJCGeuz3vDkSNv0UiK2yAkdlh7Z9PTkSPP0UtLqj6qIeCenkDK0fUQ0WfLJW4/IKCOnLkxYpv+5PD2y2ynpmUnpkRibkYmr0iPfuyE5snFGe9A49fNpfWhyGRGbpkf6pNc3MTI9El/PyPwg/SFK7dZP/2zWezs5El/rmJ7JOt76/CA5svp/04vZMHH6z9KLKE9rxnK/PuiUHskqJzZpmp6ZMyc90y09knW9E3ulR1qnR7rG0PTQGqmB76eXEeunR9b+TXKkQ86z7jr2yghltG/r3JMcaZvxceYsWsQBGeWclxxplV5Kev0xNyLSL8XKU5dIe/5j8r2CzNP9NhmZdqlnBhHRc1h6pn16pDI9EhHfTY/0zLhnkrE+zZOvk7ZLL2SNx9Iz3TMu4HKuYZPbxIiYnZHJuM3UOKOY6JmR6ZVxDtY24xwsQ0VC/VFRRMTU5bYo8JWnAxgAAAAAAADqUPXFa2nnAfXBbwADAAAAAAAAlAkdwAAAAAAAAABlwiOgAQAAAAAAoA7VX7yWdh5QH4wABgAAAAAAACgTOoABAAAAAAAAyoRHQAMAAAAAAEAdqiOiahnMA+qDEcAAAAAAAAAAZcIIYAAAAAAAAKhDVSz9COClzcOSMgIYAAAAAAAAoEzoAAYAAAAAAAAoEx4BDQAAAAAAAHWo/uK1tPOA+qADGFZ2L0VERcL0M9KLuDI9Er+8Kz3T9Oa/poeGpEfeeyI9k2PNuDw9dF/6KcBt6aXE9xO3wWpxYUYplemRv6dHPvhHeqbHq6+mh1qlR+Le9MgtGcX86i8ZoZMvTs9kHKKD0yNx4NtLPm1GlVa+RkRE44TpZ2WU0Skj0yIjEw+kR6ZlFJPzLJyc7ZazPqPS24Op6aVEu+Rt8K+MUjIuOWZnFNM9I5NyzMw3MeNyfU56ZOP0SMSknNA/0yMj0yNN0yPJh/VnGWWUpamRtm9PTi8ip8rNKSemZxw8OQuXk/kkI5MV+ig5MSWjlHbJ2yB9uSI6pkcyPpsZGdV0i6z16ZweydgFso63CTmhsemRyfUSSW/f5uUUUp4mjE47fV0t47Tg9+mRmDYqPbPLm8PSQxnr88FT6Zm70yNxepyfHro/PfLiO+mZ9xKn3z/OSS9kaMaJ653pkUfeT8/sknEvJ+s8POOcOmMTxP/9KSO0T8Y5WMYhmnGbKf6YcKIzM2P+UE50AAMAAAAAAEAdqr54Le08oD74DWAAAAAAAACAMqEDGAAAAAAAAL6CZsyYEf369YsBAwbESSedFLNnL/p3k373u9/FaaedFkcddVS88sorpfdHjBgR3/jGN6JVq1bx3e9+Nz788MN6WnJWJB3AAAAAAAAAUIeqZfRKdfzxx8cuu+wSgwYNiq222ioGDBiw0DSPPfZYPPDAA3HZZZfFlVdeGYccckjMmDEjIiJ+/etfx7nnnhv33XdfvPPOO/HjH/84YylY2egABgAAAAAAgK+YcePGxT333BN77LFHRETssccecf3118e0adNqTHfJJZfEXnvtFRERrVq1ip49e8bgwYNjypQpcdJJJ8Wuu+4a22+/fVxxxRXxxBNP1Pt6UP90AAMAAAAAAEAdqpfRK8WTTz4ZHTt2jGbNmkVERKdOnaKysjKGDh1amqaqqiqGDBkSPXv2LL3Xq1evGDJkSLRp0ya22GKL0vtrrLFGdOvWLXEpWBmtsqIXAAAAAAAAABqKqVOn1vh3ZWVlVFZWLjTd2LFjo3379jXea9myZYwbN67070mTJsWsWbNqTNeyZct49dVXF5rfCy+8ED/5yU+WdvFZCRgBDAAAAAAAAPWke/fu0aZNm9Jr0KBBi5yuoqKiNPp3vjlz5kSTJk1qTBMRNaZbcJqIz0cKP/roo3HCCScsq9XgK8wIYAAAAAAAAKhD1RevpZ1HRMTo0aOjdevWpfcXNfo3IqJr164xZcqUGu9Nnz49unbtWvp3hw4dorKyssZ006ZNqzFNRMQ111wTF1xwQTRt2nQp14KVgRHAAAAAAAAAUE9at25d41VbB/AOO+wQY8aMiTlz5kRElB79vM0225SmqaioiB122CFGjBhReu+dd96JHXbYofTv+++/PzbZZJPo1avX8lgdvoJ0AAMAAAAAAMBXTJcuXWL33XePIUOGRETEww8/HP369YvKyso466yz4sMPP4yIiBNOOCEeeuihiPj894XHjh0b+++/f0REPP744/H222/HWmutFe+991488cQTce+9966YFaLeeAQ0AAAAAAAA1KGIiOplMI9U119/ffTv3z9eeOGFmDRpUlx00UUxa9asGDx4cOy1117RpUuX2HPPPeP111+Ps88+OyZNmhSDBw+OZs2axfPPPx/f+973YubMmXH66adHRESjRo1izJgxS7kmfNXpAIaV3dcionHC9JumF3Hyf9IzTfdOz0TTTdIzvV9Njqz5zfRiollGJr6bHvnmPcmRQ9JLiVW3Wfw0Ne2TUcon6ZGd0yM9JqdnYpPm6Zl5M9MzO6ZHjrkpPZNTTsT3M8r5XXLkoPRSYpduSz7t1OqIGJdRSDlqEmntwciMMj7KyKQsU0nGKerojGKGZWTGZ2RiVnpkyuInWdCE9EhMm502fY+cdYm30yNjM4p5PSPTISOTcS4V76dHcr6LvWnGnYjWMT2jpHTvZWQ6JU6fuDsz39z0yIyccnJCGcuWdUcup2rLWbbIuck2MTmRszrpn0/GuX68kx7JWJlp6ZFoMW9qemiVjM8zY//M+p3BrFDGiV7Gxs66aZ66fy7tjzOWkU5rR7ROef5jxmXi5Rn3jFpnXPvHBhumZ/ZOP+HvkV5KnP5oRijOSY/sl37PaOsRi59moUzyteLl6YVsc1J6pml6Xb1Lzv2CnBsZ/83I7JkeuTBnXzsyI7NLxu/DfnNOcuRnp6QXc2DvJZ92alXEUW+ml/FV1LFjx/j973+/0PujRo2q8e/+/fsvNE3fvn1jxoysM3hWcjqAAQAAAAAAoA5VsfTfM/I9JeqL3wAGAAAAAAAAKBM6gAEAAAAAAADKhEdAAwAAAAAAQB08ApqViRHAAAAAAAAAAGXCCGAAAAAAAACoQ/UXr6WdB9QHI4ABAAAAAAAAyoQOYAAAAAAAAIAy4RHQAAAAAAAAUIeqL15LOw+oD0YAAwAAAAAAAJQJI4ABAAAAAACgDkYAszIxAhgAAAAAAACgTBgBDCu78ZH2VY4J6UVUpkciZmRkPn01PTM6o5ycZcvyz/TIyGW/FIs0NzXwQEYhU9IjH2UUk/O1uQ9npmemZZQzKT3SKqOYGJcTGpIeydg/O6VH0vbP6pwCylTqsbBhRhk5meYZmRifHlk7o5jtMjJZ9fT09Eib9EivlumZ6JyRSdYzPbLes+mZPumR2Dojs15GZov0yJkvpWdaZ2zqrEvCjMZqz/RIbJw4/YyI+L+McsrOlEi7PpicXsTX0iMRTTMy72dkcs7122ZkWmRk4u30yKfp562rp5cS0T418HpGIZPTIxnnep1zLmAnZ2TaZpwUzEmPrJ8eybt2ydk/My6rck4nk4/ReTmFlKnxEVGRMH3GtWXy7YWIvGPu02HpmZx2JOO+Wd59pj+nR3LugWXcmkk/tjPuGY2dmp55Nz0SGcVk3WPJuZ+Vcc8oS876jMposDL2tazbBSltnHtGNHA6gAEAAAAAAKAO1bH0/cr6pakvHgENAAAAAAAAUCZ0AAMAAAAAAACUCY+ABgAAAAAAgDpUR0TVMpgH1AcjgAEAAAAAAADKhBHAAAAAAAAAUIfqWPoRvEYAU1+MAAYAAAAAAAAoEzqAAQAAAAAAAMqER0ADAAAAAABAHaq+eC3tPKA+GAEMAAAAAAAAUCaMAAYAAAAAAIA6GAHMysQIYAAAAAAAAIAyYQQwrOxmR0RFwvTT0otokR6JqM7ITM7ITMnINKmnTIxNj8zKKac+fJKRmZgemZtRTOOMTMZxEBMyMjPSI80zislan/goPZKxPk3TI2n7QZFTQJmaF2l1b049PScjk1V/zkuP5HyFNqfOyaqnJ9dLOcX09EzFzNTE5PRCcjI5n83sjEzO55lRF+asT07zlrXdcj6fjG2QvKtFevOWU0ZZqoq09jHjPKJneiSvPcg5RidlZNpmZFplZHLat4xt0C7nq/6tUwM5H07G+jfLKKZzRianDcmpdDLOv7pnFFNv7UGG9jmh1IukrPUvUzMj7Z5RxqV/1ul+zmeUc00+OSOTc52UdeL2bnok59o/p7pOvrbKuP+V83nm1Ls5n03OuUTO+iS3vXnNYtZxUF+fT46Ua5Gc4xnKiA5gAAAAAAAAqEN1LH2/sn5p6otHQAMAAAAAAACUCSOAAQAAAAAAoA5VkfcLVAvOA+qDEcAAAAAAAAAAZUIHMAAAAAAAAECZ8AhoAAAAAAAAqINHQLMyMQIYAAAAAAAAoEwYAQwAAAAAAAB1KCKiehnMA+qDEcAAAAAAAAAAZUIHMAAAAAAAAECZ8AhoAAAAAAAAqEPVF6+lnQfUByOAAQAAAAAAAMqEEcCwspsVERWJ0ydq2jM9E20yMhMyMtMyMm0zMh0yMjkbO8OqzTNCyeszL6OQ6emRJhnF5OyfjTMyk+qnnM4ZxcSMnFDG/pmxPu3TI2mh6oj4NKeQMjQz0r7at25GGVtkZDplZGJy/ZSzXkZmckYmpw5tlh6pyGkPkuvQnLYtY2fL+Tx3zsjkVLpdmqZnus5JjnRolV5MjM3I5OyfGedfOR9p6ibw7eYvfBpp1weT04tonbOx52Zkcq4P3svI5Mja4SanR3Kud3LOqZMzUzIKybg+SK8+805Ac5q3nOE7GZ9ni4xi4qOMTPFxeiZju+XsnpHa9KbUgWVuRhHRuFjy6VvMTC+jdc45aM55Tn3dM6rMyLTNyOQcqBmfT1Z7lfz5ZNTvk9MjWRVI14xMTv2es3+2To/k3G7Nup+V08xnbLeMTZDWJlTnFADlQwcwAAAAAAAA1KE6lr5fWb809cWXpAEAAAAAAADKhBHAAAAAAAAAUIeqyHtK+ILzgPpgBDAAAAAAAABAmdABDAAAAAAAAFAmPAIaAAAAAAAA6uAR0KxMjAAGAAAAAAAAKBNGAAMAAAAAAEAdqr94Le08oD4YAQwAAAAAAABQJnQAAwAAAAAAAJQJj4AGAAAAAACAOlR98VraeUB9MAIYAAAAAAAAoEwYAQwru+qIqEiYfkJ6EQPer59M6yvTMznefbh+ylnnDx+lh95Oj9wwMz2zw6Np0/eKt9ILyfk+2zPpkVeeSM9stmd6JjpkZF5Mj/wio5h9pmWEPp2TnnktPXJueiTWf2fJp52RMf+yNSWS2oN3n0ovonFGpll6JDof9EF66PaMgv6SHvl0enqm3Z0ZBf0jPXJfRnvQ+Lm06b/zSnV6IW2uTs/ckh4Ze1l6Zo1t0zNxYHr9+W7G55mxOnFCRmajz+5LD2Wcr/wmPRK9E6efm1FGWWoXaV/1bpFexNkZVcGvXknPxGkZmfbpkbGvp2fWyDgOIibnhJLdMzs9s8VLadOvE7PSC4mx6ZFh6ZG//Cc9s88n6ZnonpGZmh65NKOYfVplhCqapmc+Sm8Tb0wvJc66NzFQZBRSpqZH2i2jFhmX/sdknIPul3Htv3t6JGJkeuTdB9Izf02PxOk5J1QZ9xiefjM9MyJx+qMmvppeyLj0SPwhPfLHjM/zwJyL2MkZmYzzjxMzihmR+oFGRIzOyGQcb2dlFNMmYd/5LGP+i1MdSz+CN+NUGrIYAQzL0KOPPhp9+vSJ9957r/Tegw8+GOuuu260b98+TjzxxJg3b17pb+PHj49jjz02zjzzzBg4cGAUhasUgHKgPQBgPm0CABHaAwCgfukAhmVkwoQJMX369Bg6dGjpvYkTJ8Zdd90VgwcPjquvvjpuueWWuOKKK0p/33///eP444+Piy++OCorK+PqqzNGyADwlaI9AGA+bQIAEdoDAKD+6QCGZaRTp06x11571XjvnXfeid///vex9dZbx49+9KM44YQT4oknPn9e7fPPPx/vvfdebL755hERsccee8Qll1ziG50AKzntAQDzaRMAiNAeAJSL6mX0gvqgAxiWoUaNah5Sffv2jVVXXbX07zXWWCO6desWERGPP/549OzZs/S3Xr16xZgxY2LkyIwfTADgK0V7AMB82gQAIrQHAED90gEM9ejFF1+M4447LiIixo4dG+3bty/9rWXLlhERMW7con/Jfvbs2TF16tQaLwBWTtoDAObLbRO0BwDlxTUCALAs6QCGejJq1Kho165dbLHFFhERUVFREc2aNSv9fc6cORER0aRJk0XmBw0aFG3atCm9unfvvvwXGoBlTnsAwHxL0yZoDwDKh2sEgJVD1TJ6QX3QAQz1oLq6Oq677rq4+OKLS+917do1pkyZUvr3tGnTSu8vyoABA2LKlCml1+jRo5fvQgOwzGkPAJhvadsE7QFAeXCNAAAsDzqAoR5cccUVccopp9T49uZOO+0UI0aMKP37nXfeibXXXjt69OixyHlUVlZG69ata7wAWLloDwCYb2nbBO0BQHlwjQCw8qheRi+oDzqAYRkqiqLGfyMiLr/88lh//fVjzpw5MXLkyLj55pvjnXfeiT59+kS7du1KJ/QPP/xwnHrqqStkuQFYtrQHAMynTQAgQnsAANSvVVb0AkC5mD59etxxxx0REXHbbbfFT3/60/jDH/4Qp512Wo3pNthggzjqqKMiIuKPf/xjXHjhhaVvcPbr169+FxqAZU57AMB82gQAIrQHAED90wEMy0jLli3j+OOPj+OPP7703kknnRQnnXRSrZl11lknbrrppvpYPADqifYAgPm0CQBEaA8AykXVF6+lnQfUB4+ABgAAAAAAACgTRgDDyq55RFQkTN8pvYg+o9IzrbumZ6J5RqZVemSdyoxyGmdkYv30yOofJEc2TS8l1ktO9M4o5aP0yNrpkc2GpGeie0ZmbkZmzfRI74kZ5bTPyLRrmp5Zc05yZMP0UmKzhGmnZcy/XM35LCLlExqZUcakjEzON1sPnpIRGpYeeXd6emZCeiT6RsaBPa5eIjErNTA5o5CpGZGMnS2nOTj4tYzQFumRtzOK+VNGZueMzEY5O3VG5Tsio5hmidPPyyiDiGiSHsk5lYq2GZmsc/B0OadS0SYn1DE90iz9+qBzeikZl4ltM0rpkB7JKKZneiTrujK5ksrM5HyeecdOy/RIi/QGO+OWRHqoOvJO2srQ6k0jWqfcM8o4z/lOxj2j3XOGJG2ckcm4YbLOf9Mze7yfnon4UXpk60HJkW/dn17M6tWJgY67pBfS+5H0zG7pkb0eSM/EdhmZnBP+jH16x5cyyumTkcm52ZjRAPf5dXpmz4RpMy5FF8sIYFYmRgADAAAAAAAAlAkdwAAAAAAAAABlwiOgAQAAAAAAoA7VX7yWdh5QH4wABgAAAAAAACgTRgADAAAAAABAHaojomoZzAPqgxHAAAAAAAAAAGVCBzAAAAAAAABAmfAIaAAAAAAAAKhDVSz9I6CXNg9LyghgAAAAAAAAgDKhAxgAAAAAAACgTHgENAAAAAAAANSh+ovX0s4D6oMOYFjZbRhpR/IW6UV8b2h6JvbIyLTbJj2zbcbC7ZgeieYZmfhRemS7R5IjfXOW7ZupgYMzCpmVHulzT3rmo/RIbLNaRmheeuSbk5IjO7+UXkzWPh0npEe2+01y5DvppUTnhKqgeVVEvJxRSBlqunVE04T2YJdhGYU0ycg0zsissXd65pC/JkfWaZZezDqT0zMRF6dHDtsvOXLQr9OLSf7toe3XTi8kuiUnWu/8VHLm4NeSIxGHZGSOTI985870zAlT0jP75JwT9DgxPbP31cmRQ+5OL+bridN/FpqEiIjoEml1b8Zh3TM9ErFeRia9+si6o7bq6hnl5FSHsWl6pMfE5EjPmJmcaZ28DTZKLiNrz+me3r6vmV5KxDoZmaYZO8HaI5Mj3d9MLybWz8jEN9Ija9+XHMlatNTQvIiYkFNQGeoYac9/XCO9iKzPNKdNaN06PdN9anomo6pa7/30TNaWy2mAM7Z1r+Sqat30QtZLv/8Vb6dHVs3ZZmtmZHKue2ekR3IOnaz1yTmwx6VHemcU0y7hnKVxdWgPaNB0AAMAAAAAAEAdqiLji9SLmAfUB78BDAAAAAAAAFAmdAADAAAAAAAAlAmPgAYAAAAAAIA6VH/xWtp5pJoxY0acccYZ0aZNm5gxY0ZccsklUVlZudB0v/vd7+Ktt96KTz/9NE466aTYbLPNSn8bPnx4nHPOOfGd73wnDjvssPwVYKVhBDAAAAAAAAB8BR1//PGxyy67xKBBg2KrrbaKAQMGLDTNY489Fg888EBcdtllceWVV8YhhxwSM2bMiIiI6urqGDduXDz77LNRXb20XdisLHQAAwAAAAAAQB2qltErxbhx4+Kee+6JPfbYIyIi9thjj7j++utj2rRpNaa75JJLYq+99oqIiFatWkXPnj1j8ODBERHRqFGj2H777WPNNddMLJ2VmQ5gAAAAAAAA+Ip58skno2PHjtGsWbOIiOjUqVNUVlbG0KFDS9NUVVXFkCFDomfPnqX3evXqFUOGDKkxr0aNdAk2JH4DGAAAAAAAAOrJ1KlTa/y7srJykb/rO3bs2Gjfvn2N91q2bBnjxo0r/XvSpEkxa9asGtO1bNkyXn311WW81KxMdPcDAAAAAABAHZblI6C7d+8ebdq0Kb0GDRq0yDIrKipKo3/nmzNnTjRp0qTGNBFRY7oFp6HhMQIYAAAAAAAA6sno0aOjdevWpX8vavRvRETXrl1jypQpNd6bPn16dO3atfTvDh06RGVlZY3ppk2bVmMaGh4jgAEAAAAAAKAORURUL+Wr+GJerVu3rvGqrQN4hx12iDFjxsScOXMiIkqPft5mm21K01RUVMQOO+wQI0aMKL33zjvvxA477LBM1puVkw5gAAAAAAAA+Irp0qVL7L777jFkyJCIiHj44YejX79+UVlZGWeddVZ8+OGHERFxwgknxEMPPRQRn/++8NixY2P//fevMa+iKKIoiqBh8AhoWNn9NyIqEqb/JL2IK9Mj8bOb0jMVFwxNDz2VHvn0H+mZuemRWC3OSg/dnR65Z2Z65lsPp03fOX6eXkjMSo/8NT3ybsbnuc7fPk4PtU+P5KxPxi4QP34wI3TIb9Izd6ZHBqdHYueEqmBGxvzL1ruR9NW+d6csfpoF5dSFOb82s06RcfC8mFHQv9MjUzPq3NZxbXpoSHrkhfRI8mf6nTdHphfSLCOT8dm8MSk9s1HGdo7u6ZGc421YeiTezdg/1ymuTg9l7Gw5h2jV4iepYU5GGWVpWkQ0Tpj+o/QiMnbpiAkZmZyCck4OJmdkctYn3k2PTEw/sHM2W9X4tOkbxzsZpUxPj2TU7TkfTYfRGaGeGe1bxsJlXFVl7p9vp0cy6o+MjzRiXOL01TmFlKdPx6W1p+3+mV5GxpVlHJixu+3y/NT0UMb6vJdxn+kv6ZE4Nc5JD92bHnk+Y1unRg6feF16IU+kR+K29Mgf3k/PHPyH9ExknIfHe+mRjE0Qp9+fEfp6Ruat9EjOPaO+CecsOR/LV9X1118f/fv3jxdeeCEmTZoUF110UcyaNSsGDx4ce+21V3Tp0iX23HPPeP311+Pss8+OSZMmxeDBg2v8JvADDzwQb775Ztx///2x7bbbxte+9rUVuEbUBx3AAAAAAAAAUIeqSP+i6qLmkapjx47x+9//fqH3R40aVePf/fv3r3Ue3/3ud+PjjzMGxbDS8ghoAAAAAAAAgDKhAxgAAAAAAACgTHgENAAAAAAAANRhRT0CGnIYAQwAAAAAAABQJowABgAAAAAAgDpUf/Fa2nlAfTACGAAAAAAAAKBM6AAGAAAAAAAAKBMeAQ0AAAAAAAB1qPritbTzgPpgBDAAAAAAAABAmTACGAAAAAAAAOpQ/cVraecB9cEIYAAAAAAAAIAyYQQwrOxWi7SvcqyXXsSOb6ZnKr6ZnokuzdMzPWcmR9qtlV5MtMjIxI/SI9tekhzpk15KdF43NXFYRimz0iNbDU2OrDMyvZjYLiOTo3d6ZMP3M8rJOK6j9bfTM998KjmSsQmib+WSTzu1iIg5GYWUoyKW+9dI59ZTJiqapmeqM3aEjGoqz5rpkax2J12T1EDbjEJy1iXja6qNM4pJ3wARkVBHzZfzG0+jMzKTMzJRsVp6pvnHyZGc6ik145v0X2gcaQdE6/QiWqVH8kLNcgqqp3La5hTUMz3SYVhyJOOqKhq3T00kX1BExBrpkYz9plN6JGL1jMwqGfVni/T6M6t9yzp2Mj6fDsOTIzlNb6Tun35csaRd04jWFQmBTdPLOPjt9MyOORXV+hmZjdMja76entknYxtEHJ4e6XNBcqTvP9OLWW96YqDjLumFbPVIemZCeuTgJ9IzWfeMcu7lrJ0e2S39tlnesbN5RqZremS79F069kyYdmr67KGs6AAGAAAAAACAOlTF0n/PyPeUqC8eAQ0AAAAAAABQJowABgAAAAAAgDpUx9KP4PXTNdQXI4ABAAAAAAAAyoQOYAAAAAAAAIAy4RHQAAAAAAAAUIfqWPpHOHsENPXFCGAAAAAAAACAMmEEMAAAAAAAANShKpZ+VGXVslgQWAJGAAMAAAAAAACUCR3AAAAAAAAAAGXCI6ABAAAAAACgDh4BzcrECGAAAAAAAACAMmEEMKzs2kRE44Tpu6YXsVnz9Ez0zshEt/RIp+HpmY3TI9E2IxObpkfWTI/06JieiQ1TA30yChmfHlkvo5itMjLtMg6E+Cg9sk51ciRjr4nonhPaKD2y3lPJkaz12Tph2nkR8XxOIWWoZSR9ta/zpPQi6u9bqmumR1bPaA8yqoLWk9MzEeunRzKWLadmSzmFiIiILjnfH81oqDp/nBxZe2J6MTm7Wk6d27l+iolOGZmIr2UUlP75rP5mejGp+/Ts9CLKU5tIu9LPOER3SI9knH9G3k79SUYm54Ql57w158S1YmxyZJ2Or6aXs1lqIGejZbSHGdu5Q861aMteGaGe6ZHujyRHtk0vJfP6IGPDrftEciTlVL+kb+L0syPi5ZyCylC3SBv+k3G/ZLu70zNZDUm7tdMzvUemZzIOujVnpWci9kqPbHZBeubr6ZEOyZvtwPRC1nohPfPNqemZndMjWbfAmmZk2qRHchYttsjIbJCxQuvMSY7ktAktEo7RqnkR8WJGIVAmdAADAAAAAABAHaq/eC3tPKA+eAQ0AAAAAAAAQJkwAhgAAAAAAADqUBVLP6qy/n5ei4bOCGAAAAAAAACAMqEDGAAAAAAAAKBMeAQ0AAAAAAAA1KH6i9fSzgPqgxHAAAAAAAAAAGXCCGAAAAAAAACoQ3VEVC2DeUB9MAIYAAAAAAAAoEzoAAYAAAAAAAAoEx4BDQAAAAAAAHWoioiKZTAPqA9GAAMAAAAAAACUCSOAYWX3XqR97ajFclqOBY3OyAwfnp75b0Y5kzMyWV/N+m165N8ZxUzKyExIDWSsS3yUHnk7o5hpGZnh49IzGZEYkR5pllFM1n4Tt6VHXkiPNE6PRIxMmLY6p4AyNTGW/muoi9G6eUYo5+uG8zLagxytMjKTcwp6OT3ySXpkbnok/bTgw4yDrvPH6ZkMTbtmhCozMrPSI00yiumTkcnzenpkfHqkdXqEXG9HWnuQ0b7nnH6t+lpG6OmMTMb+mXWel+WG9Mi76XXonInpxTRNvn67Mb2Q6JkeeSujmORrnci7Fm2Rkck4DjKanYhnMjI/uDY981x6ZEZ6JH27zcsppDxVjUy7ndH4+fQycvbRFu9nhF5JuVD8QkYbFznLlnHuHnFOeiRnfTLuS6TfZ7o8vYx/TU3P5NwzymkTMuq2rPsybdMjWbdAcvabJ+ekZzIq+IxS0tqEIqeAulXH0t+KciuL+mIEMAAAAAAAAECZ0AEMAAAAAAAAUCY8AhoAAAAAAADqUBVL/+tbWb80CBmMAAYAAAAAAAAoEzqAAQAAAAAAAMqER0ADAAAAAABAHTwCmpWJEcAAAAAAAAAAZcIIYAAAAAAAAKhD9RevpZ0H1AcjgAEAAAAAAADKhA5gAAAAAAAAgDLhEdAAAAAAAABQh6qIqFgG84D6YAQwAAAAAAAAQJkwAhgamlYZmSYZmWYZmcYZmZxlyymnaUYmOqRHWmQUk7MNkveDjhmFZDQxOftNzj7dNiMzKyOTsT5Z3wLM2adzPtPmHyRHcj7SpM/U1yZLis8iioTpc6qOaJ6Rydk/J2dk5mZkcpYta6eelxNKlrNobVID1RmFVGTsOI1npmdWT49E64xMxoaur10t5zDIkvE14pzmOjWTVa+Vo4pI+4wyzj+zqsKc89ycg6eynsrJWZ+ck9DmHydHmuZ81T/5IE1uQSLr/DNnZ2ubkcmppHL2gYxM1ql+1nCPtumR5pOSI1mHTurnU28NYhnKODdqUS91TuTt1zl1SE4m55wyp07M2W45y5Z8zp+xLu3TI1nXoznl5GTaZmQyPs+c05z6uW8YWcdo24xikm63VkfEjJxCaldE3mXxgvOA+mAEMAAAAAAAAECZ0AEMAAAAAAAAUCY8AhoAAAAAAADqsCx+icyvmVFfjAAGAAAAAAAAKBNGAAMAAAAAAEAdjABmZWIEMAAAAAAAAECZ0AEMAAAAAAAAUCY8AhoAAAAAAADqUB0RFctgHlAfjAAGAAAAAAAAKBM6gAEAAAAAAADKhEdAAwAAAAAAQB2qviLzgCVhBDAAAAAAAABAmTACGFZ2q0VE44Tpu2eU8c2MzNYZmdUzMl0zMpvWUznRJz2y4X3pmS3SI+mZb2QUMj09su7V6Zn26ZFYbe30TJOR6Zn10yObpUci1ssJbZce2fCO5EjO4Za0aHMi4p2cQspPRfuIioSv9jVdI6OQrTIyLTIyHTMO7K0mZRSUIaMqyKpDN/5rcuRrTdKLiXUTp18j5/uj+6ZHNk2vb7IqnJz6M6P6bJpx7Bz+UnqmRcv0TNYKrZG+f271ZnoxGydOPyO9iPLUMdKuD3qmF9F6rfRM9M7I5Fy75NSFGedsWZmc463L5PTMxh+nZzZMDWSsS85OsPbv0jPT0iPRpUdGKKPS7TksObL+M+nFxNcyMjnnKxnXr1mXLqn3JGZFxD9yCio/jZtGNK5ICORcX2e0I7FmRqZVRqZtRibn/s/kjEzORsj5fLplZJK3dcZO0DY9kvXZ5FQ6nTMybeqnnJxTo+iUkcnZ1zKO0azbrSmf6byIGJ1TSO2MAGZlYgQwAAAAAAAAQJnQAQwAAAAAAABQJjwCGgAAAAAAAOpQHREpT9avbR5QH4wABgAAAAAAACgTRgADAAAAAABAHZbF6F0jgKkvRgADAAAAAAAAlAkdwAAAAAAAAABlwiOgAQAAAAAAoA4eAc3KxAhgAAAAAAAAgDJhBDAAAAAAAADUoSoiiqWchxHA1BcjgAEAAAAAAADKhA5gAAAAAAAAgDLhEdCwspsUaV/leC+9iKkPp2da5zzL4uiMzPiMzJCMTNuMzBlj0zMj0iNznkvPNJ2bGBj0Xnoh8VF6ZGRGMTmf50EZBY3LKGdYeuTejGI2fi8jFP9Nj7yfHvlTeiS2fyRhYs/NKZk6KW36ERPTy6jO2G1ybH1K4spERNyeHvn0ifTMhPRI9Io/pIf+mh65I7Vuj4gWb6ZNv8+/Mg66znckR4qMzzOjCY1em2aEDkiPPP9SeubU9EicPj09s8/EjJ3t6fTIr9MjkfrxZBwC5anxF68llXFYzxmVnmmaUbVHs4xMk4xMTuXeNiNTX7dgRmdk2qQG6mldZmZk3s4pKKMCjZbpkWnpkZxLpG9kZLI+04yK97X0SByYei02O6OQclUdERUJ02fso+9ltAlr5tTvLTIyOXVIxkllkXFfpiIq00M5bWnGfYkYkxqYl15GzmeT017n3DPaMSOT89k0TY9kXMLGlhnHddbnk9EmPJpRzA9eSZh4Odwz8ghoViZGAAMAAAAAAACUCR3AAAAAAAAAAGXCI6ABAAAAAACgDsvi8c0eAU19MQIYAAAAAAAAoEwYAQwAAAAAAAB1qIqIYinnkTMCeMaMGXHGGWdEmzZtYsaMGXHJJZdEZWXlQtP97ne/i7feeis+/fTTOOmkk2KzzTYr/e3CCy+MKVOmxIQJE+Lcc8+Nnj175q8EKwUdwAAAAAAAAPAVdPzxx8fee+8de++9d9x+++0xYMCAuPzyy2tM89hjj8UDDzwQf/vb32LatGmx7bbbxgsvvBAtWrSIm2++OcaPHx9XXnlljBo1Kg444IB47rnnolEjDwkuZz5dAAAAAAAA+IoZN25c3HPPPbHHHntERMQee+wR119/fUybNq3GdJdccknstddeERHRqlWr6NmzZwwePDgiIi6++OL4/ve/HxERa621VkyfPj0ef/zxelwLVgQdwAAAAAAAAFCH6vj8MdBL85r/COipU6fWeM2ePXuRZT755JPRsWPHaNasWUREdOrUKSorK2Po0KGlaaqqqmLIkCE1Huvcq1evGDJkSIwbNy7efvvtRf6N8qYDGAAAAAAAAOpJ9+7do02bNqXXoEGDFjnd2LFjo3379jXea9myZYwbN67070mTJsWsWbNqTDd/mrFjx0ZELPJvlDe/AQwAAAAAAAB1qI6IiqWcR/HFf0ePHh2tW7cuvV9ZWbnI6SsqKkqjf+ebM2dONGnSpMY0EVFjuvnT1Pa3Fi1aLNV68NWnAxgAAAAAAADqSevWrWt0ANema9euMWXKlBrvTZ8+Pbp27Vr6d4cOHaKysrLGdNOmTYuuXbuWppsyZUqsuuqqpb9ttNFGy2I1+ArTAQwrqaL4/LtCU4v43w8HLIl56WVNTY9EzM3ITFv8JAuZlZGpyshkbLeYOic9Mz09klFKNE3dBlM/yygl48PJ+TyzPpuMTMZnk3Mc5GyCnF0tpmYcCDPSI1mLllCnzZ92fp3YEM1f99QqNGeXTmlulsbUnPagntq3nO02Ned4y6gMcmrq1G8uT82oB3La95wjOuuzyTknyPhscjZbTvM2MyOTdbxlfEA59UdqMzp/mzXUNqF0fZC6X2fs01nnn4v+SbO65eyfOZVBzgGXdZKTE8o4enIOgdRtMDXnrDWjlsrZb3Lq9qk5Gy2joIzrg5z2PevybWrGwmUcbzkf6dTE0PxDraG2BxEL3DNKkVFN5VTVWedg9XXPKKNNyNnTKnLq0Zz1yTkJS12hnPoj5/PMOdnN2ddyysmp3OppF8j5eOrrHthyv2f0xb68srcHO+ywQxx77LExZ86caNq0aenRzdtss01pmoqKithhhx1ixIgR0bdv34iIeOedd+LQQw+Nrl27xgYbbBAjRoyIzp07l/42YMCA+l8Z6lVFsbLv/dBAjRkzJrp3776iFwPgK2H06NHRrVu3Fb0YK4T2AKCmhtomaA8Aamqo7UGENgHgy5ZFezB16tRo06ZNtIxl8wjo6fH5iNwlGQEcEbHffvvFcccdF7vsskvceuut8cYbb8TFF18cAwcOjBNPPDG6dOkS999/fwwePDjuuuuumDp1amy77bbx8ssvR7NmzeKaa66JDz/8MH7961/HyJEj4+CDD47nn39+KdeErzodwLCSqq6ujnHjxkWrVq1Kz/GP+Lwx6t69+0K/IdCQ2Aa2QYRt0FDWvyiK0iNtGjVqtKIXZ4WorT2IaDj7QW0a+vpH2AYRtkFDWv+G3iZoD+rW0LdBQ1//CNsgouFsg4beHkS4Z1SXhr4NGvr6R9gGEQ1nGyzL9mBFdwBPnDgx+vfvH2uuuWZMmjQpLrrooqiqqooNN9wwBg8eXBr1e9FFF8X06dNj0qRJ8ZOf/CQ22WSTiPi8Xejfv3+0bNkyxo0bFwMHDvRFoQbAI6BhJdWoUaM6v7m0pL8hUM5sA9sgwjZoCOvfpk2bFb0IK9Ti2oOIhrEf1KWhr3+EbRBhGzSU9W/IbYL2YMk09G3Q0Nc/wjaIaBjboCG3BxHuGS2Jhr4NGvr6R9gGEQ1jGyzr9qA6lk0HcKqOHTvG73//+4XeHzVqVI1/9+/ff5H5Ro0axcUXX5xRMiuzhvk1OAAAAAAAAIAyZAQwAAAAAAAA1GFZ/J6q32SlvugAhjJTWVkZ5557blRWVq7oRVlhbAPbIMI2aOjrz+ca+n7Q0Nc/wjaIsA0a+vrzOfuBbdDQ1z/CNoiwDbAPRNgGDX39I2yDCNsgR9OmTaNz587x0UcfLZP5de7cOZo2bbpM5gW1qSiKwhcOAAAAAAAAYBFmzZoVc+bMWSbzatq0aTRr1myZzAtqowMYAAAAAAAAoEw0WtELAAAAAAAAAMCyoQMYAAAAAAAAoEzoAAYAAAAAAAAoEzqAoczMmDEj+vXrFwMGDIiTTjopZs+evaIXqd79+te/joqKiqioqIhNN910RS9OvXn00UejT58+8d5775Xea0j7w6LWP6Lh7A8PPvhgrLvuutG+ffs48cQTY968eRERMX78+Dj22GPjzDPPjIEDB0ZRFCt4SakvDen4r0tDqQO+THugPdAe8GUN6fivS0OpA76sobcHEQ27TdAesKCGdvzXpiEc/wvSHmgPtAfQMOkAhjJz/PHHxy677BKDBg2KrbbaKgYMGLCiF6lezZ49Oz744IN45JFH4pFHHok//elPK3qR6sWECRNi+vTpMXTo0BrvN5T9obb1byj7w8SJE+Ouu+6KwYMHx9VXXx233HJLXHHFFRERsf/++8fxxx8fF198cVRWVsbVV1+9YheWetNQjv+6NJQ64Mu0B9oD7QELaijHf10aSh3wZQ29PYho2G2C9oBFaUjHf20awvG/IO2B9kB7AA1XReGrHVA2xo0bF+uss058+umn0axZs5gwYUL07Nkzxo8fH61atVrRi1cvfve738WkSZPixBNPjObNm6/oxalX1dXV0bhx4xg1alSsueaaDW5/WHD9IxrO/vD888/HpptuGquuumpERPz85z+P119/PX7xi1/EAQccEB988EFERLz44ouxzz77xAcffBAVFRUrcpFZzhra8V+bhlIHLEh7oD3QHjBfQzv+a9NQ6oAFNfT2IKLhtgnaAxbUEI//RWkIx/+iaA+0B9oDaJiMAIYy8uSTT0bHjh2jWbNmERHRqVOnqKysXOgbbuVs8ODBMXDgwOjcuXPccccdK3px6lWjRjWr9Ia2Pyy4/hENZ3/o27dv6WQ+ImKNNdaIbt26xeOPPx49e/Ysvd+rV68YM2ZMjBw5ckUsJvWooR3/tWkodcCCtAfag/m0BzS04782DaUOWFBDbw8iGm6boD1gQQ3x+F+UhnD8L4r2QHswn/YAGhYdwFBGxo4dG+3bt6/xXsuWLWPcuHEraInq3+OPPx6ffPJJnHrqqXH44YfHAw88sKIXaYWxPzTc/eHFF1+M4447bqF9oGXLlhERDWofaKgc/59rqHXAguwPDXdf0B7g+P9cQ60DFmR/+FxD3B+0Bzj+P9cQj/9FsT98riHuD9oDaFh0AEMZqaioKH17b745c+ZEkyZNVtASrRht2rSJ8847L84+++y48sorV/TirDD2h881tP1h1KhR0a5du9hiiy0W2gfmzJkTEdHg9oGGyPH/Pw2tDlgU+8PnGtq+oD0gwvH/ZQ2tDlgU+8P/NKT9QXtAhOP/yxrS8V8b+8P/NKT9QXsADY8OYCgjXbt2jSlTptR4b/r06dG1a9cVtEQr1gknnBCjR49e0YuxwtgfamoI+0N1dXVcd911cfHFF0fEwvvAtGnTSu9T3hz/C2sIdUBt7A81NYR9QXvAfI7/hTWEOqA29oeFlfv+oD1gPsf/wsr9+K+L/WFh5b4/aA+gYdIBDGVkhx12iDFjxpS+tTX/sR3bbLPNilysFaZRo0axxRZbrOjFWGHsDzU1hP3hiiuuiFNOOaX0Lc6ddtopRowYUfr7O++8E2uvvXb06NFjRS0i9cTxv7CGUAfUxv5QU0PYF7QHzOf4X1hDqANqY39YWLnvD9oD5nP8L6zcj/+62B8WVu77g/YAGiYdwFBGunTpErvvvnsMGTIkIiIefvjh6Nev30KPdSlXEydOjDvvvDOqqqqiKIr4zW9+E7/61a9W9GLVm6Ioavy3oe0PC65/Q9sfLr/88lh//fVjzpw5MXLkyLj55pujQ4cO0a5du9JJ/cMPPxynnnrqCl5S6kNDO/4XpaHVAV+mPdAeaA+Yr6Ed/4vS0OqAL2vo7UFEw24TtAd8WUM8/hfUkI7/BWkPtAfaA2iYKor5tR5QFiZOnBj9+/ePNddcMyZNmhQXXXRRNG3adEUvVr0YNWpU7LzzztG0adP41re+FSeffHJstNFGK3qx6sX06dPjjjvuiH79+sW5554bP/3pT6Njx44NZn9Y1PpPmzatwewPV111VZx88sk13ttggw1i2LBh8e6778aFF14YPXr0iKIo4txzz42KiooVtKTUp4Zy/NemobYJ2gPtgfaABTWU47822oOG2R5ENOw2QXvAojSk439RtAfaA+3B57QH0HDoAAYAAAAAAAAoEx4BDQAAAAAAAFAmdAADAAAAAAAAlAkdwAAAAAAAAABlQgcwAAAAAAAAQJnQAQwAAAAAAABQJnQAAwAAAAAAAJQJHcAAAAAAAAAAZUIHMEADMmrUqFhzzTVj5syZK3pRanj55ZfjO9/5Ttx2220relEAGgTtAQAR2gMA/kebAFBedAADrMTeeOONOPDAA6OioiIuvPDCGD9+fJ3Td+3aNc4999xo3rz5Ml+WoUOHxk477RSNGjWKG264IaZOnbrE2U6dOsXbb78dRVEs8+UCaAi0BwBEaA8A+B9tAkDDVlGoOQFWao899ljsvPPOMWvWrKisrFxm8/3444/jiSeeiAMPPHCJMzfddFMMHDgwPvroo+Tyvv3tb8dRRx0VRxxxRHIWAO0BAJ/THgAwnzYBoOEyAhhgJde4ceMa/10WZs+eHYcddlh89tlnycuyyiqrZJXZqJEmCWBpaA8AiNAeAPA/2gSAhkvNCVBm5syZE+ecc06cc8458d3vfjcuvvji0vuXXnppdO/ePSIi/vvf/8a+++4bv/zlL+O0006Ltm3bxs9//vOIiLjvvvti2LBhcc8998QVV1wRERGXXXZZXH755fGNb3wj+vfvv9jl+PDDD+O0006L733ve3HnnXfGGmusEdtvv33MnTs3IiKqq6tjwIABce6558aPf/zjGDVqVCk7bdq0+OUvfxmnn3569O3bN4YOHRrjxo2LvffeOyoqKuIvf/lLvPjii9GjR4/417/+tSw3H0DZ0B4AEKE9AOB/tAkADYcOYIAyc84550T37t3j/PPPj3vuuScuvfTSuOeee2KVVVaJbbbZJsaMGRMRERtttFHMmzcvhgwZEieeeGI88sgjcdlll8WMGTNiv/32i7XXXjv233//OOWUU+KNN96Id999N0499dR46KGHom3btotdjk6dOkW3bt3ijTfeiG7dusXw4cNj2LBh8fjjj0dExNVXXx2rrLJK/PKXv4xrrrkmZsyYUcqedtppccQRR8Sll14aBxxwQBx88MHRtWvXGDx4cKy//vrx+uuvx7///e+4++674xvf+MZy2Y4AKzvtAQAR2gMA/kebANBw6AAGKCNVVVVxww03xLbbbhsREc2bN48f/vCHceONN0ajRo1K3+SMiFhllVWibdu28e1vfzvWXHPN2HzzzaOqqio++eSThebbvHnzuP322+OKK66Ipk2bxlFHHbXYZZk//x49esT2228fLVq0iF69esX48eMjIuLiiy+O73znOxERUVlZGb17946Iz7/lee+998Zf//rXuOKKK+KTTz6JddddN6ZPnx7NmjWL3/72t3HppZfGxx9/HH379l3qbQZQjrQHAERoDwD4H20CQMOS99B9AL5yGjVqFB9//HFMnjy59MiciIi11147HnnkkYiIqKioqJH58r/n/w5LdXX1QvNea6214tZbb42f/vSn8Zvf/CbuuuuuWG211Ra7TAuWt8oqq0R1dXV88sknMW7cuGjZsuVCmQkTJsTUqVPj5JNPXigfEbHjjjtGjx49YtiwYYstH6Ah0h4AEKE9AOB/tAkADY8RwABloE2bNtGoUaPo1KlTrLrqqvHWW2+V/lYURay//vpLNf+xY8fGD37wgxg+fHjssMMOcfDBBy/V/Fq2bBmNGjWKN998c6G/dezYMaqqquKBBx4ovffqq6/GrFmzIiLirrvuigsuuCD+8Y9/xGOPPbZUywFQbrQHAERoDwD4H20CQMOkAxhgJXXZZZfFr371q6iqqoqddtopIiIaN24cxxxzTNx8882l6YYOHRrHH398RHx+Yv/l/1ZXV5f+f775/27atGl8+umn8fbbb8eIESPib3/7W7Ru3TquvvrqhTLzzZs3r8a3QWubf2VlZXzve9+LCy+8MKZMmRIzZ86M8ePHx4QJE6Ioith///3jyCOPjNtuuy0eeuihuO2226JZs2YxduzYGDVqVOy9995x/vnnR79+/Uon+QANlfZAewAQoT3QHgD8jzZBmwCgAxhgJdWmTZu44oor4p///GdcddVVpfcvuuii6NKlSxxwwAFx1llnxQ477BC77bZbzJs3L+64446IiLjtttti2LBh8fzzz8eTTz4ZI0eOjNtvvz0iIu68886YO3duHHjggTFo0KD417/+FRERRx55ZPz85z+Piy66qMbFwnwvvfRS3H333fHxxx/Hb3/723j//ffj/vvvjzfffDOee+65eOGFF+Ltt9+OBx98MMaPHx833nhjdOnSJXr37h0///nPo3PnzvHBBx/Exx9/HNdcc01st912cdJJJ8XFF18cp556aowfPz722Wef6NixY0RE9OzZM4YPHx6HHXZYTJgwYXlvboCvLO2B9gAgQnugPQD4H22CNgGgoqjtKzkAAAAAAAAArFSMAAYAAAAAAAAoEzqAAQAAAAAAAMqEDmAAAAAAAACAMqEDGAAAAAAAAKBM6AAGAAAAAAAAKBM6gAEAAAAAAADKhA5gAAAAAAAAgDKhAxgAAAAAAACgTOgABgAAAAAAACgTOoABAAAAAAAAyoQOYAAAAAAAAIAyoQMYAAAAAAAAoEzoAAYAAAAAAAAoEzqAAQAAAAAAAMqEDmAAAAAAAACAMqEDGAAAAAAAAKBM6AAGAAAAAAAAKBM6gAEAAAAAAADKhA5gAAAAAAAAgDKhAxgAAAAAAACgTOgABgAAAAAAACgTOoABAAAAAAAAyoQOYAAAAAAAAIAyoQMYAAAAAAAAoEzoAAYAAAAAAAAoEzqAAQAAAAAAAMqEDmAAAAAAAACAMqEDGAAAAAAAAKBM6AAGAAAAAAAAKBM6gAEAAAAAAADKhA5gAAAAAAAAgDKhAxgAAAAAAACgTOgABgAAAAAAACgTOoABAAAAAAAAyoQOYAAAAAAAAIAyoQMYAAAAAAAAoEzoAAaoB2PGjInLL788qqqq6pzuxhtvjGHDhtXTUn31TJo0Kf7v//4vevbsGe+9996KXhyAr6z57cr7778f/fv3j06dOtU6bUNsW4YPHx4nnXRSbLLJJit6UYAysqTn9Pfcc088++yz9bRUy97QoUPjsMMOi913371eyps2bVpcffXVseGGG8aTTz6ZnB8zZky0b98+hg4dutTL8sgjj8Qpp5wSW265Zey6664xduzYpZ4nwFdFbe1YdXV1/OUvf4mddtopfvnLX0bE8r2GmDt3btx1113Rp0+fuPXWW5dLGQDoAAZY7j744IO44IIL4pRTTonGjRvXOe2xxx4b1157bfz3v/+tl2V77bXX6qWcJVVVVRWNGjWKDz74YEUvCsBX1pfblaZNm8bs2bNj4sSJtU5fX23LV6lNadasWYwdOzamTp26ohcFKBMp5/T7779/PPLII/Hwww/X09ItW506dYoRI0bErFmz6qW8qqqq6NSpU7z55ptZ+bZt28Yee+wRXbp0WarlGD58eJx44olx+eWXx+OPPx4fffRRVof0kvoqtZtA+aurHSuKItZdd9147rnnoiiKiFi+1xDz5s2LLl26ZH1xR90JsOR0AAMsR1VVVfGjH/0oBg4cGI0aLVmVe95558UxxxwT06ZNW67LNmXKlPjVr361XMtI1alTp9hiiy1W9GIAfGUt2K506dIlevfuvdjc8m5b5s6dG2edddZymXeOHj16xIYbbriiFwMoEznn9P3794+zzz47xowZs5yXbtlba621Yr311qu38tq2bRvbbLNNdr5ly5Zx1113Rffu3ZdqOf7whz9Ep06dolGjRtGmTZt49dVX40c/+tFSzbM2X7V2Eyhvi2vHGjduHJtsskl07NixxvvL6xpi1VVXje222y45p+4ESKMDGGA5uuOOO6J169bRo0ePJc506tQp+vTpE1ddddVyW65Zs2bFwQcfHOPHj19uZeRa3IgKgIZsUe3KktSby7NtqaqqihNOOOEr92187QmwrOSc01dWVsYBBxxQepTmymZJO7pX1vIWZfTo0fXSdnxV202gfC1pO7ZgXbw8ryFS61t1J0C6FX+GDVDGrr766thxxx1rvDdx4sQ49NBDY+DAgbHbbrvFvvvuu9AjKrfffvu46qqrorq6eqF5fvjhh3HeeedF165dY+zYsfHtb3872rRpE4ceemjMmDEjJkyYEL/4xS+ioqKi9FsqDz30UPTs2TO23377iIi4/fbb45133onhw4fHT37yk/jHP/6xyOWfPHlynHzyyXHGGWfEzjvvHMccc0xMmTIlIv73+4qbbrppjBw5Mrbbbrto2bJlXHDBBXVukxEjRsSPf/zj+O1vfxvHHntsjBw5ss7pq6urY+DAgXHSSSfFEUccEX369InXX3+99PcbbrghzjzzzPjxj38clZWVcf/995e203HHHRdnn312bL755rHVVluVMp999lmcd9550a9fv9hss83iyCOPLH0Gb775Zhx33HExYMCAWHfddWO//farc/kA6tOi2pX5hg8fHn369Il27drFcccdt9CjO+tqW+b705/+FKeeemrstttu0adPn3juuedKf7vyyivjmGOOiRNOOCE233zz0mMx//a3v8W///3v+OSTT+InP/lJ3HnnnQvN9+WXX44jjzwy9thjj3jttdfiW9/6VrRq1SoGDhwYc+fOjZ/97GfRunXr2GyzzWL06NGlXF319ZK0pwDLQm117yOPPBJHHHFE9OvXL/r06RNPPfVUjb9vv/32cfvtt8enn35a67xffvnlOOKII+LEE0+MbbbZJv785z+X3j/qqKNijz32iD/+8Y/Rvn37uOiiiyIi4vXXX49jjz02fvazn8XXv/71uOiii0qP7IyI+NWvfhUDBw6Mgw8+OBo3blw6d845z33ppZdik002ibZt28btt99eer+2Ori6ujruvffe2HXXXeP888+PO++8M7p16xY9e/aMl19+uca8r7jiijj88MOjX79+ceaZZ9b4W13n8l82c+bMuOGGG6J3797x5JNPJpU/32effRbHHHNMPP300/H222/HMcccEzfddFM8+eSTsf/++8ePf/zj+M1vfhOtW7eOu+66KyIinn766TjuuOPixBNPjL59+8bNN98cEbFE5S9JuwmwLNXWjj366KNx4IEHximnnBIHH3xwTJ8+faFpFncNUVfb8v/+3/+LQw89NE477bTYdNNN4+67717kPGbMmBFXXHFFNG7cOM4777yIiHj22Wdj8803jzXXXDMiaq87P/nkkxgwYEAcffTRsfHGG8epp54ac+fOTdk8AOWrAGC5GDduXBERxYMPPljj/SOOOKI46KCDiqIoiqlTpxZNmzYtrr322hrTvPrqq0VEFEOHDl1ovmPHji1OPPHEIiKKc889txg6dGgxaNCgIiKK0047rSiKoqiqqioiorjllltKuUMPPbTYbrvtSv8+/PDDa/x7QVVVVcXXv/714v777y+KoijmzJlT9O3bt9h1111Ly3HQQQcV7du3Ly6++OJizJgxxS9+8YuiUaNGxYcffrjIec6ePbtYd911i3vvvbcoiqJ4//33iw4dOhR9+/YtzjnnnKIoiuKJJ54oIqIYNWpUURRFceuttxZdunQpzWPbbbct9t9//6IoimL06NHFVlttVfrbFVdcUdx3331FURTFscceWypn+vTpxfe///3SdD/96U+LMWPGFEVRFJMmTSo6depUHH300UVRFMWuu+5a/Pe//y2t42GHHVbrNgKoT7W1K7fccksREcUZZ5xR/POf/yzOPvvsoqKiojj11FNrTFdX21IURfHkk08WV155ZenfRx99dNGhQ4di8uTJxZNPPllERDF79uyiKIrioIMOKrbeeuvStOeee27Rs2fPWpd9+PDhxZZbblmst956xa233lqMHz++GDBgQBERRf/+/YuhQ4cWo0aNKrp161b069evlKurvl5ce7q4ZQJYErXVvUOGDCk22mijUr142GGHFW3bti2qqqpK00ydOrWIiOLuu+9e5LzfeuutomfPnsWkSZOKoiiKc845p2jcuHExfvz4YtiwYcVWW21VrL322sVNN91UnHXWWcXdd99djBs3rujevXvx0UcflZavZcuWxYUXXlgURVE8++yzxd57710q45RTTilee+21oijSznMPP/zwYq211iquv/76YuzYscWhhx5adOjQoaiuri6KovY6eN68ecVbb71VNG/evNhuu+2KP//5z8WYMWOK3r17F9/5zndK87/yyitr/PvCCy8sIqJ44okniqKo+1z+yz799NPitttuK2WXtPza1vnL10f/+c9/im7duhUbb7xxcffddxcnnHBC8eSTTxb//e9/i3XXXbeYOXNmURRF8corrxSNGjUq/vCHPyxx+doooL7U1o4NHTq06NGjRzFlypSiKD5vP+bfZ/qyxV1D1Na2jBw5smjUqFHx9ttvF0VRFAMGDCg6depUI7vgfavu3bvXKP8Xv/hFjbpyUXXnYYcdVkydOrUoiqIYNWpUscoqqxQXXHBB7RsEoAFZpZ77mwEajFdffTUiIjp37lzj/W233TZWW221iPj80XDt2rWLiRMn1pimW7duERHxyiuvxNZbb13jb127do3NN988IiJ+/vOfx6qrrhpbb711PPDAA/G73/0uLr300kU+Qi31sWoPPPBA/Oc//4k99tgjIiKaNGkSZ555Zuyzzz4xZMiQ2G677WLdddeNZ555Js4444yIiDjwwAPjggsuiJEjRy603hERb7zxRrzzzjux/vrrR8Tnv9G4+uqrx957773Qt/7n69WrVxx//PGlf3fu3Lm0vT7++ON45ZVXYvDgwXHQQQfFEUccEaNGjYqIz0cNXHHFFdG3b99YbbXV4pRTTomIiPfffz/uu+++WGONNUrz/Na3vhWzZ88u5QYNGhQ33nhjdO3aNY488sik7QawvNTWrsx38cUXR0TErrvuGqNHj44bb7wxLrvsstLf62pbIiLOP//82GyzzUojzFZdddXYbLPN4oMPPoiuXbvGSSedFE2bNi0tw/PPP7/Ey77eeuvF1772tRgzZkwcfvjhERFx6KGHxqBBg2K33XYrLc83v/nNGD58eEQsvr5ekvYUYGnVVveee+658cMf/rBUL5599tnx9a9/vcY5d6tWraJ169bxyiuvxP7777/QvC+66KLYeeedo127dhER0a9fv2jbtm20b98+Vltttdhggw3itddei6OOOqqUOe2002KDDTaI1VdfPSIiunTpEkcddVRceOGFcdJJJ8WHH34Yjz76aDz22GOx0047xQknnBDNmjWLiPTz3G7dusVxxx0XERE//OEP44477ogJEybEaqutVmsd3Lhx41h//fWjQ4cO8e1vfzv22WefiIjYfffd4957742IiGnTpsXZZ58df/jDH0pl7b333jV+17G2c/kFtW3bNr7xjW+U/r0k5S+pzTbbLNZaa63o0KFD7L///qXPcN99940dd9wxVl111YiI2HTTTWPPPfeMs846Kw466KBlVj7AslBbO3bmmWfG/vvvH61bt46Iz8+t57ctX7a4a4ja2pbWrVvHYYcdFmuvvXap/MWdqy9432px97GefvrpeOWVV+Laa68tvbfrrruWnlwH0NDpAAZYTj755JOIiGjRokWN94899tiYMGFCDBo0KKqrq0uvL5ufqe03eisqKiIiSjcdIiJ23HHHeOaZZ2LChAnRqVOnpV7+J554Ilq2bFnjhHvLLbeMiIgXX3wxtttuu2jUqFGNv89f7jlz5ixynh06dIiKior4+OOPS53ALVu2jHHjxtW6HNtuu21sueWWceONN8bo0aNj/Pjx0aRJk4iI2HzzzeN73/teHHzwwXHVVVfFoEGDSo+5Pv3002PPPfeMddZZJ0488cQYMGBARHzeCd2sWbPo37//Iss7++yz45BDDolHH300zjzzzDj55JOXZHMBLHe1tSuLsscee8Rtt90WH3/8cekG/eLaltdeey1+/etfR9++fRf599/85jfx//7f/4vXX389hg8fXuejpBdllVVqXnp8uQ2br7KysvTItsXV10vSngIsrdrq3qFDh8YBBxxQ+vd6660X66233kL5Fi1a1FrvDh06NPbcc8/Sv1dfffX42c9+Vvp3o0aNok2bNjUyTzzxRKy77ro13ttyyy3jqquuijfffDN233336N27d+y8886x2267xUUXXVSaPvU898vn+fPr7Pk/L7C4OnhR1wnzrxGeeeaZmDZtWumxnhFR6qSer7Zz+UVZ1O9I1lV+ito+g2OOOabGe1tuuWX8/e9/j4kTJ0bHjh2XWfkAS2tR7diMGTPiqaeein333bfGtAvWxV/O1daW1da2dOjQIW655Zb4xz/+EU8//XS8//77NX6uYFl47bXXokuXLjWuF2q7dgBoiPwGMMByMv8myYIX+o899ljsu+++cdhhh8XAgQOjefPmC2Xnd/Au6mZGbb78DfxloSiK+OSTT2LevHml9+Z/Y3R+B2yqHj16xIABA+KWW26JiIgJEybEiBEj4uCDD641M3r06Nhuu+1io402igsuuKDGjbWKior4y1/+EoMHD46PPvoodthhh/j9738fERHf/va346233op99903/u///i+22WabmDFjRsyePTvee++9mDRpUo1y5n8T9YADDojXXnsttt122zjzzDNjl1120aEAfCXU1q4sSqtWraKioqJGG7O4tmX27NkL/T5idXV1TJo0KaZMmRI77bRTNG3aNH71q1/V+luMy9Li6uslaU8BllZtdW9lZWXpiQXzFUWx0O8nVlRU1FrvLmoeEZ+PkK1NURQL3YT/8jl68+bN4+mnn45rr702/v3vf8fWW28dDz30UEQs3Xnu/DZk/vRLUwfP30Z1/TZybefyXwV1fQYLftkJYEVbVDs2c+bMqK6urrMenm9x1xC1tS1z586N/fbbL0aMGBEXXnhh7LLLLstgbWqaPXt2vPrqqwv95q+nAgF8TgcwwHIy/5GVCz565vDDD48DDzywxiMtFzT/pk/37t3rLKOqqqr0/x999FH07t279PieJk2axGeffVb6+4Lfyp9/El+bbbbZJqqrq+Ppp58uvTf/m6M77rhjndm6bLLJJjFz5sy45JJL4sYbb4wnnngittlmm1qnHzBgQHTr1q3Go93me+ONN2L48OHxwx/+MN54443Yaaed4qqrroqIiL/85S/RtWvXuPXWW+OBBx6It99+O/75z3/GhhtuGLNnz45f//rXNeZ10003lXLrr79+/P3vf48bbrghnnrqqXjllVey1xdgWamtXVmUESNGRN++faNly5al9xbXtmy00UZx6aWX1uh4+OMf/xjTp0+PSy65JKZPn156lOWCFtem5Fhcfb0k7SnA0qqt7t1oo43irrvuqlFn3n333TFz5swa002bNq3OevfBBx+MDz74oPTev/71r3jnnXdqXZ5tttkmXnrppRodzZ988kmsttpq0bt373jsscdixowZ0a9fvxg2bFhssMEG8dvf/jYilu157tLUwfOfBPToo48u9Lf51yu1nct/FWyzzTYxZMiQGiPZPvnkk9hiiy2ibdu2SzSP5dFuAizKotqxTp06Rbt27eqsh+db3DVEbW3LbbfdFkOGDImTTjppiZe1adOmSfexNtpoo/jwww/j+uuvL703Z86cuOOOO5a4TIBypgMYYDnZfPPNo2XLlvH+++/XeH/WrFlx7733xrvvvhvXXnttTJ48OcaNGxdPPPFEaZr33nsvIiL69OlTZxmvvfZaRETMmzcv7r777vjFL35R+ts666wTf/rTn2LYsGFx3XXXxWuvvRbvvfdeDBs2LCI+f4zP+++/H59++mk8/PDDC817//33jw022CAuueSS0gn3PffcEwcccEBsvPHGERExd+7cRY4a+HLH9JdNnz49jj766Nhuu+2ie/fu0atXr9JjnRfMzv/vrFmz4tlnn41XX301/vrXv8aLL74YEydOjEcffTQmT55c+s3L5s2bx5577hm9evWKiIg777yzNKJi1113jfbt28d6660X66+/fuy9995x+eWXx49+9KO4/vrrY5999ik93vrqq6+uMRq4WbNm0aNHjzo/B4D6UFu7Mt/830CfNm1a3HTTTXH55ZfX+Pvi2pb+/fvHe++9F3379o0rr7wyfvGLX8SQIUOiR48eMWvWrBg2bFg8++yz8dhjj8XDDz8cU6ZMiWeffTYmTZoULVq0iAkTJsTHH38cDz744CLnX1VVVaN9mN9+fLkdKYqiNM3i6uvFtacLlgeQo7a6t3///jFhwoTYdddd484774zzzjsvnnvuudJTeSI+H+E6bdq0WuvdM844I+bNmxe77bZb3HLLLXHppZfGNddcE5tvvnlEfF4/zv/d8y9niqKIa665pvTen/70pzjvvPOicePGMWHChNIXIjt27Bg77rhj6fw45Ty3qqqqzvP8xdXBi7pOmJ/dZJNNYscdd4zLL788HnzwwZg3b1488MADERHx0ksvxfjx42s9l69tWb/838WVX5vPPvtsoQ78RX0GZ599dowePTr++Mc/lub7t7/9Lc4///wlLn9J2k2AZaG2duxnP/tZPPXUUzFo0KCYPXt2/Otf/4pJkybFG2+8UWPaxV1D1Na2zJo1Kz755JP4+9//Hi+88ELcc889ERHx7LPPxsiRIxdZd6+zzjrx4IMPxmuvvRa33357DBkyJCZMmBD//ve/o6qqaqG6c+edd44tt9wyfvazn0W/fv3iuuuui+9973ux2267LbPtB7BSKwBYbg4++OCif//+Nd77/e9/X7Rt27bYZJNNimeeeaY44IADil69ehWvv/56aZpbbrml2HzzzWud7y233FJERHHyyScX5513XnHAAQcU119/fY1p7r///qJTp07FWmutVTzyyCPF0UcfXfzgBz8oHnvssaIoiuLf//530bVr16JPnz7FRx99tMhyPvjgg2KvvfYqtt9++6Jfv37FaaedVnz22WdFURTFCy+8UGy88cZF48aNi9/+9rfFmDFjilNPPbWIiOKggw4qRo0atdD8qquri912263o0qVL0axZs6JRo0ZFRBTNmzcvnn322WL06NHFgQceWEREceKJJxZjx44tXnzxxaJnz57FGmusUdxwww3FNddcU7Rv37744x//WDz33HNFRBQ77bRTMXDgwOKII44oPvzww6IoimK33XYr2rdvX5x44onFT37yk+Lmm28uLcenn35aHHLIIUWLFi2KtdZaq7jttttKf1t//fWLbt26Faeddlpx9NFHF/fff3+tnwNAfVtUuzJt2rTinHPOKbbYYovioIMOKg4//PDi+eefXyi7uLalKIri+uuvL3r06FG0adOmOOKII4rp06cXRVEUI0eOLDbaaKOiU6dOxfnnn1/87W9/K1q3bl1cccUVRVEUxfvvv1/06tWr2GCDDYo333xzofk++uijxRprrFG0bt26GDx4cDFu3LjihBNOKLUZw4cPL+69996ie/fuRatWrYq77767KIq66+u62tOXXnqp2GSTTYrGjRsX1157bTF79uy0DQ3wJYuqe4uiKK677rpijTXWKNq3b1/069evmDlzZo2/P/HEE8Vqq61WzJkzp9Z5/+UvfynWWWedolWrVsVBBx1UTJw4sSiKonjwwQeLNdZYo2jSpElx2WWXFfPmzStlhgwZUmy99dbFfvvtVxx99NHFddddV/rb4MGDi4gofvCDHxQDBw4sjj322FJdvqTnuffdd1/RrVu3om3btsVdd91VvPvuu8UhhxxSuv6YOHFinXXwtddeW1RUVBSbbbZZ8cwzzxTPP/98seWWWxaNGjUqrrvuuqK6urr46KOPiu9973tFZWVl0bt37+Lmm28uunfvXlx00UXFpEmT6jyX/7KJEycWP/3pT0vtyQcffLBE5X9ZdXV1cdNNNxVt2rQpmjZtWlx//fXFO++8U9x1111Fy5Yti7Zt2xa33HJLjcyf//znYtNNNy0OOeSQ4vDDDy/+9Kc/lf62JOUvrt0EWJYW1Y7NnTu3OPXUU4vWrVsXXbt2La666qqid+/exU9/+tNi+PDhpekWdw1RW9syadKk4utf/3rRtm3b4sQTTyyeffbZolWrVsUZZ5xRzJo1q7jgggtK93P+85//FEVRFEOHDi169OhRdO7cubjrrruK8847r9hpp52Kv/71r0VVVdUi687Ro0cXe+65Z7HqqqsWG2ywQfHQQw8t460HsPKqKIpl/OvrAJS8/vrrcfjhhy/0m4qLc8ABB8QBBxwQ++233yL/fuutt8aRRx4ZK1sV/uGHH8agQYNKoxIiPh89MGTIkLj//vvj6quvXoFLB/DVl9uuRCy+bQFg0XLr3jPPPDNWW221OP3005fTkgHA4rmGAGiYPAIaYDnq3bt3fPe7340///nPS5x59913o7q6uixPrk8//fSFHhvUrFmz6NmzZ3zta19bQUsFsPLIaVciyrttAVjecureyZMnx3/+8584+eSTl+OSAcDiuYYAaJh0AAMsZ+edd168/PLL8e677y522qlTp8a1114bt956a53TzZs3LyI+/22plcmHH34YF154Ydx///0xYcKEmDx5cjz++ONxySWXxI9//OMVvXgAK4WUdiViydsWAGqXUvfOmTMnBg0aFLfffns0adKkHpYOAOrmGgKg4fEIaIB68uCDD8Zuu+0WjRs3rnWav//977H77rtH06ZNa53mmWeeiYEDB8ZTTz0VZ599dpx66qnRrl275bHIy9yECRPi/PPPj/vuuy8+/PDDWGONNeLAAw+MgQMHRsuWLVf04gGsVJakXYlYsrYFgCWzJHXvP//5z/j6178erVq1qsclA4DFcw0B0HDoAAYAAAAAAAAoEx4BDQAAAAAAAFAmdAADAAAAAAAAlAkdwAAAAAAAAABlQgcwAAAAAAAAQJnQAQwAAAAAAABQJnQAAwAAAAAAAJQJHcAAAAAAAAAAZUIHMAAAAAAAAECZ0AEMAAAAAAAAUCZ0AAMAAAAAAACUCR3AAAAAAAAAAGVCBzAAAAAAAABAmdABDAAAAAAAAFAmdAADAAAAAAAAlAkdwAAAAAAAAABlQgcwAAAAAAAAQJnQAQwAAAAAAABQJnQAAwAAAAAAAJQJHcAAAAAAAAAAZUIHMAAAAAAAAECZ0AEMAAAAAAAAUCZ0AAMAAAAAAACUCR3AAAAAAAAAAGVCBzAAAAAAAABAmdABDAAAAAAAAFAmdAADAAAAAAAAlAkdwAAAAAAAAABlQgcwAAAAAAAAQJnQAQwAAAAAAABQJnQAAwAAAAAAAJQJHcAAAAAAAAAAZUIHMAAAAAAAAECZ0AEMAAAAAAAAUCZ0AAMAAAAAAACUCR3AAAAAAAAAAGVCBzAAAAAAAABAmdABDAAAAAAAAFAmdAADAAAAAAAAlAkdwAAAAAAAAABlQgcwAAAAAAAAQJnQAQwAAAAAAABQJnQAAwAAAAAAAJQJHcAAAAAAAAAAZUIHMAAAAAAAAECZ0AEMAAAAAAAAUCZ0AAMAAAAAAACUCR3AAAAAAAAAAGVCBzAAAAAAAABAmdABDAAAAAAAAFAmdAADAAAAAAAAlAkdwAAAAAAAAABlQgcwAAAAAAAAQJnQAQwAAAAAAABQJnQAAwAAAAAAAJQJHcAAAAAAAAAAZUIHMAAAAAAAAECZ0AEMAAAAAAAAUCZ0AAMAAAAAAACUCR3AAAAAAAAAAGVCBzAAAAAAAABAmdABDAAAAAAAAFAmdAADAAAAAAAAlAkdwAAAAAAAAABlQgcwAAAAAAAAQJnQAQwAAAAAAABQJv4/JPY6B4KeHDIAAAAASUVORK5CYII=;" vertex="1" parent="1">
          <mxGeometry x="-830" y="90" width="1920" height="975" as="geometry" />
        </mxCell>
      </root>
    </mxGraphModel>
  </diagram>
</mxfile>
